<svg version="1.1" id="Layer_1" xmlns="http://www.w3.org/2000/svg" xmlns:xlink="http://www.w3.org/1999/xlink" x="0px" y="0px" width="100%" viewBox="0 0 225 225" enable-background="new 0 0 225 225" xml:space="preserve">

<path fill="#FFFFFF" opacity="1.000000" stroke="none" d="
M1.000000,98.000000 
	C1.000000,65.698334 1.000000,33.396660 1.000000,1.047496 
	C75.894859,1.047496 150.789764,1.047496 226.000000,1.047496 
	C226.000000,42.353695 226.000000,83.708191 225.695831,125.306381 
	C222.917175,119.824089 221.340942,113.452797 217.785400,108.503410 
	C209.830566,97.430176 197.914398,93.279800 184.685120,93.026207 
	C178.091248,92.899811 173.013809,91.068130 168.822845,85.581841 
	C161.653275,76.196312 153.841537,67.301926 146.319016,58.185146 
	C142.483536,53.536800 138.140762,49.992332 131.630020,50.011677 
	C110.975029,50.073055 90.319679,50.020943 69.664490,49.996346 
	C65.351891,49.991211 62.054249,51.709625 59.468700,55.224155 
	C53.944656,62.732971 48.363075,70.204651 42.612431,77.540527 
	C29.307653,94.512917 34.663910,92.743851 11.908937,92.836937 
	C7.423417,92.855278 4.165636,94.098740 1.707080,97.974258 
	C1.471970,97.994728 1.000000,98.000000 1.000000,98.000000 
z" data-index="1" style="visibility: hidden; opacity: 1; fill: rgb(121, 40, 202);"></path>
<path fill="#64B2F4" opacity="1.000000" stroke="none" d="
M1.942190,97.953781 
	C4.165636,94.098740 7.423417,92.855278 11.908937,92.836937 
	C34.663910,92.743851 29.307653,94.512917 42.612431,77.540527 
	C48.363075,70.204651 53.944656,62.732971 59.468700,55.224155 
	C62.054249,51.709625 65.351891,49.991211 69.664490,49.996346 
	C90.319679,50.020943 110.975029,50.073055 131.630020,50.011677 
	C138.140762,49.992332 142.483536,53.536800 146.319016,58.185146 
	C153.841537,67.301926 161.653275,76.196312 168.822845,85.581841 
	C173.013809,91.068130 178.091248,92.899811 184.685120,93.026207 
	C197.914398,93.279800 209.830566,97.430176 217.785400,108.503410 
	C221.340942,113.452797 222.917175,119.824089 225.695831,125.775040 
	C226.000000,132.687637 226.000000,139.375290 226.000000,146.531464 
	C223.035538,151.917648 218.728394,153.921951 213.038834,153.077759 
	C211.898163,152.908524 210.676453,152.881180 209.549164,153.092606 
	C202.936737,154.332886 199.450668,152.199677 196.996323,145.299179 
	C192.606339,132.956696 179.820953,125.986229 166.692947,127.078110 
	C153.872070,128.144440 143.420120,137.564590 139.116531,151.850372 
	C138.428513,152.456528 138.219406,152.712875 138.010300,152.969223 
	C121.980026,153.014236 105.949753,153.059250 89.319016,152.808929 
	C88.406372,152.359543 88.094193,152.205475 87.782013,152.051407 
	C84.906090,142.641434 79.934036,134.725571 70.895508,130.213409 
	C54.120556,121.839119 34.544487,130.095703 28.504482,148.215118 
	C27.221659,152.063446 25.705967,153.703873 21.596437,153.187302 
	C18.313011,152.774567 14.915998,152.781754 11.617033,153.098557 
	C7.474152,153.496414 4.533823,151.937012 2.133795,147.877350 
	C1.974801,130.716644 1.958495,114.335213 1.942190,97.953781 
M56.639328,86.193390 
	C55.368973,88.151009 54.098618,90.108620 52.502045,92.568939 
	C67.547951,92.568939 81.593292,92.568939 95.888481,92.568939 
	C95.888481,84.022118 95.888481,75.802238 95.888481,67.076324 
	C88.365097,67.076324 81.094101,66.916847 73.840912,67.205231 
	C72.313210,67.265968 70.496536,68.675308 69.420807,69.968742 
	C65.174797,75.074043 61.170765,80.380608 56.639328,86.193390 
M143.403168,92.902374 
	C146.329208,92.902374 149.255249,92.902374 153.421494,92.902374 
	C148.203125,86.511940 143.664658,81.088776 139.275085,75.547661 
	C132.361710,66.820679 124.638359,64.463860 113.613220,67.843437 
	C113.613220,76.101601 113.613220,84.331902 113.613220,92.902328 
	C123.485970,92.902328 132.959534,92.902328 143.403168,92.902374 
z" data-index="2" style="visibility: visible; opacity: 1;"></path>
<path fill="#B8D8F9" opacity="1.000000" stroke="none" d="
M1.707080,97.974258 
	C1.958495,114.335213 1.974801,130.716644 1.969918,147.569824 
	C1.948729,148.041550 1.475196,148.001801 1.237598,148.000900 
	C1.000000,131.645767 1.000000,115.291542 1.000000,98.468658 
	C1.000000,98.000000 1.471970,97.994728 1.707080,97.974258 
z" data-index="3" style="visibility: visible;"></path>
<path fill="#65B3F4" opacity="1.000000" stroke="none" d="
M165.583847,176.945007 
	C155.248596,173.622955 149.967896,167.038773 149.895874,157.856506 
	C149.828903,149.318268 154.960907,141.577393 162.700653,138.958511 
	C170.441620,136.339218 177.622421,137.695740 183.411469,143.464890 
	C189.689621,149.721451 190.755066,157.420731 187.602417,165.553070 
	C184.769928,172.859604 177.849014,177.085236 169.491821,177.089493 
	C168.330322,177.090073 167.168793,177.032013 165.583847,176.945007 
z" data-index="4" style="visibility: visible; opacity: 1;"></path>
<path fill="#65B2F4" opacity="1.000000" stroke="none" d="
M75.306915,165.981506 
	C70.387558,174.907166 62.951565,178.474304 53.483791,176.894867 
	C46.063049,175.656906 41.034054,170.992218 38.698734,163.691742 
	C36.114231,155.612289 38.820621,146.716202 45.340126,141.805481 
	C52.164223,136.665329 61.073078,136.361771 68.150368,141.028244 
	C75.375252,145.792038 78.528336,154.209854 76.285233,162.765762 
	C76.033569,163.725708 75.742317,164.675262 75.306915,165.981506 
z" data-index="5" style="visibility: visible; opacity: 1;"></path>
<path fill="#58ADF3" opacity="1.000000" stroke="none" d="
M87.886429,152.311676 
	C88.094193,152.205475 88.406372,152.359543 88.853622,152.741425 
	C88.656067,152.836823 88.323448,152.704391 87.886429,152.311676 
z" data-index="6" style="visibility: visible;"></path>
<path fill="#58ADF3" opacity="1.000000" stroke="none" d="
M138.282532,152.942093 
	C138.219406,152.712875 138.428513,152.456528 138.874725,152.111908 
	C138.926163,152.320755 138.740479,152.617859 138.282532,152.942093 
z" data-index="7" style="visibility: visible;"></path>

<path fill="#FAFCFF" opacity="1.000000" stroke="none" d="
M142.918137,92.902351 
	C132.959534,92.902328 123.485970,92.902328 113.613220,92.902328 
	C113.613220,84.331902 113.613220,76.101601 113.613220,67.843437 
	C124.638359,64.463860 132.361710,66.820679 139.275085,75.547661 
	C143.664658,81.088776 148.203125,86.511940 153.421494,92.902374 
	C149.255249,92.902374 146.329208,92.902374 142.918137,92.902351 
z" data-index="9" style="visibility: hidden; opacity: 1;"></path>
</svg>