<svg version="1.1" id="Layer_1" xmlns="http://www.w3.org/2000/svg" xmlns:xlink="http://www.w3.org/1999/xlink" x="0px" y="0px" width="100%" viewBox="0 0 800 800" enable-background="new 0 0 800 800" xml:space="preserve">

<path fill="#2EACD7" opacity="1.000000" stroke="none" d="
M299.982300,405.048523 
	C308.311371,407.185089 316.655151,409.266357 324.966766,411.468689 
	C348.919617,417.815613 373.143677,419.180054 397.572693,415.050293 
	C406.870972,413.478394 416.047089,411.163574 425.244537,409.038757 
	C426.522583,408.743530 427.602661,407.591522 428.774384,406.836121 
	C427.674408,405.815338 426.726562,404.187744 425.450897,403.867859 
	C413.094879,400.769745 400.768127,397.441010 388.260834,395.097168 
	C378.862732,393.335999 369.233154,392.550537 359.668335,392.017303 
	C351.399017,391.556335 342.979675,391.287567 334.796478,392.302826 
	C318.029022,394.383148 301.290100,396.942688 284.706940,400.166412 
	C274.717926,402.108246 265.065460,405.749115 255.216476,408.462158 
	C252.051605,409.333923 248.742050,409.680450 244.985504,409.493256 
	C247.424561,407.795624 249.737473,405.870483 252.323029,404.437134 
	C269.806885,394.744904 288.366638,387.522522 307.862488,383.493469 
	C328.050354,379.321411 348.460419,377.749939 369.272858,380.258209 
	C387.152496,382.413055 403.803650,387.892578 420.305542,394.396820 
	C423.047516,395.477570 425.786133,396.934631 428.046631,398.799286 
	C434.443451,404.075989 441.223633,404.425079 449.200378,402.862274 
	C465.819061,399.606262 482.485870,398.490784 499.658295,400.315002 
	C515.272949,401.973755 530.422180,405.140350 545.301270,409.404144 
	C555.383240,412.293243 564.810120,417.571838 574.383911,422.091370 
	C580.093262,424.786621 585.519897,428.080566 591.073608,431.105347 
	C590.830688,431.702515 590.587769,432.299652 590.344849,432.896820 
	C584.355957,431.116943 578.420959,429.122620 572.366821,427.602539 
	C560.353821,424.586304 548.256775,421.905914 536.227844,418.950775 
	C519.575806,414.859894 502.619965,414.885834 485.654968,415.052643 
	C469.303986,415.213440 453.296448,417.651428 437.767487,422.857574 
	C419.855804,428.862549 401.542236,432.356049 382.585754,431.997894 
	C353.742798,431.452972 326.915771,424.174652 302.785278,407.988037 
	C301.875824,407.377960 301.302856,406.266266 300.278931,405.207520 
	C299.984772,405.026733 299.982300,405.048523 299.982300,405.048523 
M567.194763,421.908234 
	C558.983948,418.576172 550.897888,414.877838 542.523865,412.025024 
	C535.513000,409.636597 528.221313,407.965912 520.952820,406.468292 
	C512.369751,404.699768 503.699890,402.417786 495.028015,402.234467 
	C482.140137,401.962097 469.143646,402.709442 456.334381,404.219116 
	C447.067902,405.311249 438.100159,408.734253 428.868866,410.391846 
	C421.349701,411.741974 414.934570,416.269379 407.164490,416.850677 
	C398.104614,417.528473 389.102844,419.716278 380.065186,419.781982 
	C367.157623,419.875854 354.237061,418.691772 341.330322,417.916107 
	C339.103668,417.782288 336.919647,416.959473 334.713013,416.467773 
	C330.233185,415.469452 325.751404,414.479950 321.270416,413.486816 
	C321.673767,415.134583 322.438873,415.893005 323.355957,416.205841 
	C333.508148,419.668335 343.471436,424.063110 353.895477,426.275085 
	C379.161987,431.636536 404.356689,430.278381 429.070404,422.469604 
	C449.581757,415.988647 470.582581,412.290802 492.068878,412.163177 
	C502.646759,412.100372 513.256348,413.125763 523.805664,414.137482 
	C529.837463,414.715912 535.788391,416.198822 541.755554,417.376648 
	C550.270813,419.057465 558.767639,420.831909 567.194763,421.908234 
M293.833252,395.239014 
	C300.928467,393.987335 307.978546,392.210022 315.128510,391.595978 
	C328.973145,390.406952 342.871277,389.322479 356.752502,389.252869 
	C366.701111,389.202972 376.692993,390.603973 386.599304,391.874420 
	C393.066437,392.703827 399.418793,394.440094 405.815125,395.805054 
	C410.367523,396.776550 414.907471,397.806244 420.207520,398.976562 
	C416.127380,394.153076 389.308014,385.150604 371.400909,383.212067 
	C354.274872,381.358124 337.100311,381.477325 319.849579,383.730804 
	C307.688049,385.319489 274.898773,395.030060 272.476288,399.915863 
	C279.543060,398.407471 286.282074,396.969055 293.833252,395.239014 
M267.545654,401.350433 
	C266.197266,401.206604 264.848907,401.062775 263.500519,400.918945 
	C263.526733,401.481842 263.552948,402.044708 263.579163,402.607605 
	C264.749634,402.340973 265.920074,402.074371 267.545654,401.350433 
M319.129242,412.280029 
	C318.575806,412.415710 318.022400,412.551392 317.468964,412.687073 
	C317.665131,413.049469 317.861267,413.411896 318.057434,413.774292 
	C318.561981,413.422363 319.066528,413.070404 319.129242,412.280029 
z" data-index="1" style="opacity: 1;"></path>
<path fill="#0E0E0E" opacity="1.000000" stroke="none" d="
M487.139954,434.135315 
	C484.682892,437.477783 482.506622,440.574982 480.502686,443.426910 
	C479.062347,436.065155 482.556152,427.403503 489.082947,422.792328 
	C496.687775,417.419556 506.472992,417.053436 514.355225,422.523468 
	C521.573792,427.532898 524.895081,434.630768 523.576843,444.647552 
	C519.880188,435.348877 514.010925,429.717957 504.908508,428.368439 
	C498.317322,427.391235 492.422943,429.427521 487.139954,434.135315 
z" data-index="2"></path>
<path fill="#0E0E0E" opacity="1.000000" stroke="none" d="
M288.864685,433.201111 
	C277.526703,433.336456 270.319855,438.621277 266.615997,448.765961 
	C263.855591,442.219635 268.355560,432.223541 275.018280,427.574829 
	C282.287872,422.502686 292.639679,422.385193 299.897278,427.362030 
	C305.795288,431.406555 311.444794,440.425934 308.581879,448.846130 
	C305.403534,439.598145 299.002655,434.376984 288.864685,433.201111 
z" data-index="3"></path>
<path fill="#2EACD7" opacity="1.000000" stroke="none" d="
M299.988403,405.022217 
	C299.903473,404.774963 299.814972,404.532227 299.726440,404.289459 
	C299.712830,404.524139 299.699249,404.758789 299.833984,405.020996 
	C299.982300,405.048523 299.984772,405.026733 299.988403,405.022217 
z" data-index="4"></path>
<path fill="#05ACEC" opacity="1.000000" stroke="none" d="
M567.233521,422.237305 
	C558.767639,420.831909 550.270813,419.057465 541.755554,417.376648 
	C535.788391,416.198822 529.837463,414.715912 523.805664,414.137482 
	C513.256348,413.125763 502.646759,412.100372 492.068878,412.163177 
	C470.582581,412.290802 449.581757,415.988647 429.070404,422.469604 
	C404.356689,430.278381 379.161987,431.636536 353.895477,426.275085 
	C343.471436,424.063110 333.508148,419.668335 323.355957,416.205841 
	C322.438873,415.893005 321.673767,415.134583 321.270416,413.486816 
	C325.751404,414.479950 330.233185,415.469452 334.713013,416.467773 
	C336.919647,416.959473 339.103668,417.782288 341.330322,417.916107 
	C354.237061,418.691772 367.157623,419.875854 380.065186,419.781982 
	C389.102844,419.716278 398.104614,417.528473 407.164490,416.850677 
	C414.934570,416.269379 421.349701,411.741974 428.868866,410.391846 
	C438.100159,408.734253 447.067902,405.311249 456.334381,404.219116 
	C469.143646,402.709442 482.140137,401.962097 495.028015,402.234467 
	C503.699890,402.417786 512.369751,404.699768 520.952820,406.468292 
	C528.221313,407.965912 535.513000,409.636597 542.523865,412.025024 
	C550.897888,414.877838 558.983948,418.576172 567.233521,422.237305 
z" data-index="5" style="opacity: 1;"></path>
<path fill="#05ACEC" opacity="1.000000" stroke="none" d="
M293.427155,395.384827 
	C286.282074,396.969055 279.543060,398.407471 272.476288,399.915863 
	C274.898773,395.030060 307.688049,385.319489 319.849579,383.730804 
	C337.100311,381.477325 354.274872,381.358124 371.400909,383.212067 
	C389.308014,385.150604 416.127380,394.153076 420.207520,398.976562 
	C414.907471,397.806244 410.367523,396.776550 405.815125,395.805054 
	C399.418793,394.440094 393.066437,392.703827 386.599304,391.874420 
	C376.692993,390.603973 366.701111,389.202972 356.752502,389.252869 
	C342.871277,389.322479 328.973145,390.406952 315.128510,391.595978 
	C307.978546,392.210022 300.928467,393.987335 293.427155,395.384827 
z" data-index="6"></path>
<path fill="#05ACEC" opacity="1.000000" stroke="none" d="
M267.318115,401.579102 
	C265.920074,402.074371 264.749634,402.340973 263.579163,402.607605 
	C263.552948,402.044708 263.526733,401.481842 263.500519,400.918945 
	C264.848907,401.062775 266.197266,401.206604 267.318115,401.579102 
z" data-index="7"></path>
<path fill="#05ACEC" opacity="1.000000" stroke="none" d="
M319.350159,412.499237 
	C319.066528,413.070404 318.561981,413.422363 318.057434,413.774292 
	C317.861267,413.411896 317.665131,413.049469 317.468964,412.687073 
	C318.022400,412.551392 318.575806,412.415710 319.350159,412.499237 
z" data-index="8"></path>
</svg>