<svg version="1.1" id="Layer_1" xmlns="http://www.w3.org/2000/svg" xmlns:xlink="http://www.w3.org/1999/xlink" x="0px" y="0px"
	 width="100%" viewBox="0 0 686 190" enable-background="new 0 0 686 190" xml:space="preserve">
<path fill="#FDFEFF" opacity="1.000000" stroke="none" 
	d="
M490.000000,191.000000 
	C326.713104,191.000000 163.926224,191.000000 1.069662,191.000000 
	C1.069662,127.731239 1.069662,64.462379 1.069662,1.096757 
	C229.666641,1.096757 458.333313,1.096757 686.971741,1.096757 
	C686.971741,64.407135 686.971741,127.703575 686.971741,191.000000 
	C621.462341,191.000000 555.981140,191.000000 490.000000,191.000000 
M321.605469,130.795441 
	C321.979095,129.500229 322.352753,128.205017 322.853424,126.062958 
	C322.833710,124.065651 322.813965,122.068352 322.933044,119.151909 
	C322.547791,115.431892 322.162506,111.711868 321.942474,107.165565 
	C322.351562,105.112564 322.275482,102.782669 323.259796,101.057907 
	C326.346497,95.649048 330.115570,90.746040 336.619232,87.919960 
	C337.080811,87.301735 337.542389,86.683517 338.744232,86.109413 
	C339.482513,86.048050 340.220795,85.986687 341.891571,86.020554 
	C346.271240,85.995117 350.650879,85.969681 355.647736,86.025169 
	C356.060852,86.063667 356.473938,86.102165 357.102966,86.781578 
	C359.413116,88.137054 361.723267,89.492523 364.608124,91.248756 
	C365.953522,92.060913 367.415619,92.733887 368.605408,93.731628 
	C369.472778,94.459023 369.981018,95.614609 371.194641,97.366325 
	C370.675262,89.660233 367.845490,85.086861 360.788177,83.312469 
	C359.502716,82.913696 358.217224,82.514931 356.159332,81.977592 
	C354.854858,81.901840 353.550354,81.826080 351.884155,81.074974 
	C348.841248,81.300919 345.798340,81.526871 342.006775,81.768982 
	C341.013031,81.860191 340.019318,81.951393 338.280579,81.983513 
	C337.516968,82.968956 336.753326,83.954399 335.289307,84.890327 
	C329.343170,84.814804 326.137207,88.859169 322.349365,93.200790 
	C320.996338,96.160393 319.643311,99.119995 318.131866,102.709572 
	C318.108704,103.141823 318.085541,103.574081 317.298492,104.239975 
	C315.214142,108.800591 315.581451,115.530273 318.058105,118.643997 
	C318.132538,119.074394 318.206970,119.504799 318.097473,120.757523 
	C318.182434,121.866135 318.267395,122.974747 318.171814,124.823303 
	C318.142700,125.584770 318.113617,126.346245 317.501740,127.152107 
	C317.414062,127.768517 317.326385,128.384918 317.045563,129.755737 
	C315.291138,133.016434 313.415070,136.219803 311.838684,139.564423 
	C311.152039,141.021286 311.080414,142.768036 310.729492,144.383133 
	C312.374725,143.726151 314.846191,143.525848 315.509369,142.326050 
	C317.452423,138.810715 318.675659,134.897507 320.524872,130.967590 
	C320.524872,130.967590 320.865173,130.787277 321.605469,130.795441 
M401.890411,150.788513 
	C402.632446,151.854706 403.374481,152.920898 404.199280,154.828384 
	C404.023499,157.114670 404.643921,158.552673 407.378296,158.325378 
	C409.132385,158.179565 410.917908,158.411911 412.870880,159.185257 
	C415.242981,159.998825 417.640289,160.746460 419.981201,161.641617 
	C423.364166,162.935272 431.493225,161.161041 435.166504,158.377274 
	C438.402496,158.377274 441.638519,158.377274 445.338409,158.377274 
	C445.338409,154.845779 445.338409,152.067596 446.009430,149.029999 
	C447.113312,145.705368 448.311279,142.408249 449.294342,139.048279 
	C450.259613,135.749054 451.651794,133.711517 455.748718,133.878189 
	C463.816559,134.206406 471.908569,133.940430 480.006470,134.867523 
	C480.006470,142.792175 480.006470,150.716843 480.006470,158.930542 
	C482.902527,158.930542 485.086792,158.666290 487.181793,158.986343 
	C491.362793,159.625046 493.816711,157.964005 495.972382,154.370895 
	C500.760284,146.390442 505.996643,138.678055 511.085052,130.879135 
	C517.494690,121.055168 523.939087,111.253899 531.115173,100.303528 
	C531.115173,116.682793 531.115173,131.648041 531.115173,147.134354 
	C527.104187,147.134354 523.359070,147.134354 519.604858,147.134354 
	C519.604858,151.073380 519.604858,154.484436 519.604858,158.025208 
	C531.176086,158.025208 542.424805,158.025208 553.780273,158.025208 
	C553.780273,154.230637 553.780273,150.710068 553.780273,146.775452 
	C550.145020,146.775452 546.892944,146.775452 543.660645,146.775452 
	C543.660645,128.978149 543.660645,111.605377 543.660645,93.832748 
	C547.303223,93.832748 550.570374,93.832748 553.893372,93.832748 
	C553.893372,90.008965 553.893372,86.594749 553.893372,82.716339 
	C547.181274,82.716339 540.722534,82.890060 534.279846,82.642776 
	C531.076355,82.519821 529.160645,83.501511 527.401794,86.261284 
	C517.569580,101.688744 507.529572,116.983864 497.548981,132.316650 
	C495.979309,134.728073 494.350189,137.100815 492.369263,140.057571 
	C492.369263,124.166924 492.369263,109.151695 492.369263,93.796768 
	C496.011261,93.796768 499.287933,93.796768 502.670593,93.796768 
	C502.670593,90.036179 502.670593,86.625977 502.670593,82.724586 
	C492.470306,82.724586 482.520294,82.642456 472.576843,82.860130 
	C471.650696,82.880409 470.766144,84.799774 469.187714,85.828239 
	C467.808563,85.232147 466.429443,84.636055 465.006592,83.133553 
	C465.006592,80.886253 465.006592,78.638947 465.006592,76.359070 
	C460.837036,76.359070 457.288025,76.359070 453.644348,76.359070 
	C453.351227,78.508896 453.094421,80.392281 452.826935,82.354057 
	C449.972443,82.354057 447.500000,82.354057 444.164978,82.035255 
	C438.063782,81.364433 431.938873,80.847382 425.878601,79.911613 
	C424.415314,79.685669 422.606018,78.371094 421.908539,77.053001 
	C417.252197,68.253494 412.775543,59.355740 408.402863,50.410530 
	C405.955627,45.404156 402.874237,42.910770 396.601562,43.023109 
	C370.792816,43.485332 344.969727,43.103054 319.156036,43.395428 
	C316.047455,43.430634 312.243164,44.919331 309.992493,47.040627 
	C299.727753,56.715313 289.902710,66.856514 279.341980,77.273125 
	C277.079132,78.786949 274.922119,81.384834 272.534210,81.618042 
	C264.282349,82.423897 255.951797,82.481300 247.647736,82.675491 
	C241.886078,82.810226 236.118698,82.701416 230.447083,82.701416 
	C230.113602,80.329407 229.869812,78.595352 229.659729,77.101051 
	C225.884201,77.101051 222.491180,77.101051 219.108337,77.101051 
	C219.108337,88.592865 219.108337,99.700165 219.075714,111.602592 
	C218.241638,112.987587 217.336670,114.335838 216.594101,115.768265 
	C215.898285,117.110451 215.374405,118.541763 214.881821,120.754166 
	C214.859543,121.855797 214.837250,122.957436 214.336533,124.535027 
	C215.314438,125.290802 216.292343,126.046577 217.849426,126.778885 
	C218.232361,126.823143 218.615295,126.867409 219.007065,127.789612 
	C219.122269,135.109421 219.865234,135.952881 226.267090,135.989899 
	C228.581406,136.003281 230.921906,135.771271 233.204636,136.040207 
	C237.485657,136.544617 241.733292,137.332458 246.097931,138.798096 
	C246.720276,141.493515 247.342621,144.188919 247.037323,146.953812 
	C242.471970,146.953812 237.906601,146.953812 233.353058,146.953812 
	C233.353058,151.057480 233.353058,154.454071 233.353058,158.347458 
	C243.026443,158.347458 252.422241,158.347458 262.136353,158.994339 
	C266.143738,159.650696 270.148529,160.845947 274.159027,160.865417 
	C287.863708,160.932037 299.955170,148.865005 300.034943,135.165192 
	C300.077606,127.842575 300.275604,120.510658 299.990265,113.199066 
	C299.678345,105.205688 301.259338,97.687042 304.942871,90.689323 
	C313.598969,74.245102 327.103149,65.008743 345.843262,63.858723 
	C353.195862,63.407520 360.193481,64.842926 366.915253,67.827057 
	C382.005188,74.526245 391.166595,86.104126 395.035065,102.905022 
	C395.095642,113.603279 395.073456,124.303314 395.303711,134.997910 
	C395.339294,136.651947 396.531982,138.281052 397.144470,140.599152 
	C397.221069,141.043350 397.297668,141.487564 397.198273,142.662704 
	C398.773743,145.136337 400.349213,147.609985 402.001831,150.007446 
	C402.001831,150.007446 401.913544,150.069580 401.890411,150.788513 
M359.768463,133.797104 
	C362.230988,127.729752 361.502441,123.172874 357.432495,120.557831 
	C357.238892,121.429268 357.066681,122.204308 356.767639,123.833794 
	C356.743622,126.061333 356.719604,128.288864 356.091248,130.954117 
	C354.627106,136.117050 352.567566,141.200806 351.867584,146.465347 
	C351.178467,151.648224 344.854736,154.528839 346.593719,160.629074 
	C348.641815,159.689163 350.327332,158.530411 351.363556,156.946808 
	C352.688599,154.921860 353.624878,152.605286 354.487640,150.323242 
	C356.029816,146.244202 357.391663,142.096970 358.996399,137.228775 
	C359.020782,136.206604 359.045135,135.184418 359.768463,133.797104 
M372.146637,145.742874 
	C372.096954,146.495255 372.047272,147.247620 371.894958,148.470764 
	C371.894958,148.470764 371.877319,148.952255 371.181488,149.161331 
	C371.241760,150.669098 371.302063,152.176849 371.362335,153.684616 
	C372.625183,152.860123 374.581604,152.298782 375.013977,151.159210 
	C376.084961,148.336349 376.459045,145.249084 377.764679,141.843262 
	C378.158478,139.226517 378.552277,136.609772 379.073273,133.150406 
	C379.022400,125.768669 378.971527,118.386940 379.011322,110.167641 
	C378.374695,108.039185 377.738068,105.910736 377.132019,102.983727 
	C376.028870,101.998650 374.925690,101.013565 373.822540,100.028496 
	C373.352753,101.383514 372.309082,102.839790 372.526764,104.073509 
	C373.061157,107.102341 374.176636,110.028656 374.958008,113.929527 
	C374.978638,120.620102 374.999237,127.310677 374.907196,134.787918 
	C374.876984,136.370758 374.846802,137.953583 374.180084,139.905579 
	C373.578125,141.611099 372.976135,143.316620 372.146637,145.742874 
M350.068970,112.224266 
	C349.295685,111.214226 348.522400,110.204185 347.749146,109.194153 
	C346.876190,110.596832 345.290649,111.979790 345.251190,113.405533 
	C345.060455,120.295860 345.285522,127.197701 345.187561,134.889877 
	C344.064941,143.460922 339.156952,150.258408 334.364624,158.421280 
	C336.635864,158.080032 339.232880,158.428146 339.902161,157.453079 
	C342.047638,154.327484 343.479706,150.712204 345.800934,147.003693 
	C346.415802,145.644318 347.030670,144.284943 347.853607,142.234390 
	C347.918091,141.516068 347.982544,140.797745 348.743805,139.883575 
	C349.102448,138.574448 349.461090,137.265320 349.936401,135.296188 
	C349.895538,134.853043 349.854675,134.409897 349.967010,133.044937 
	C349.972351,126.364799 349.977661,119.684669 350.068970,112.224266 
M341.017517,128.092880 
	C340.807190,124.029945 340.596832,119.967010 340.707062,115.197533 
	C341.403351,105.498291 342.407776,104.403954 351.276581,104.647293 
	C353.300568,108.416359 355.324585,112.185425 357.652527,116.520485 
	C359.082581,114.226051 359.831818,113.023926 360.581055,111.821800 
	C360.204010,111.875542 359.826996,111.929276 359.449951,111.983017 
	C358.771393,109.524513 358.092804,107.066017 357.508881,104.950371 
	C356.282074,103.790833 355.146881,102.440475 353.744049,101.481789 
	C352.666290,100.745255 351.251373,100.502068 349.130127,99.929863 
	C344.859039,99.711960 340.981842,100.359192 338.130920,104.952576 
	C337.540497,106.326332 336.950073,107.700096 336.180664,109.914261 
	C336.282227,111.903091 336.383759,113.891922 336.221222,116.807983 
	C335.824707,122.833755 335.368103,128.856796 335.093872,134.888123 
	C335.050781,135.835983 335.606232,137.339905 336.299347,137.644882 
	C337.003998,137.954926 338.887115,137.328537 339.097015,136.715805 
	C339.951111,134.222717 340.361145,131.577454 341.017517,128.092880 
M383.966705,109.913948 
	C384.020599,118.622879 384.074493,127.331810 384.006348,136.823685 
	C384.017029,137.877075 384.027710,138.930466 383.996429,140.729141 
	C384.696136,141.402359 385.395813,142.075592 386.095520,142.748825 
	C386.688965,141.816147 387.282440,140.883453 388.019501,139.190628 
	C388.111176,138.164398 388.202850,137.138168 388.977844,135.838455 
	C389.466522,128.549164 390.042389,121.263451 390.342346,113.966393 
	C390.383606,112.962502 389.055298,111.902313 388.236145,110.101906 
	C388.136658,109.070961 388.037170,108.040009 388.025940,106.150391 
	C386.652283,101.677643 385.882751,96.896126 383.785828,92.793022 
	C378.571106,82.589287 370.653778,75.350723 358.417542,72.607185 
	C356.398956,72.017845 354.349792,71.515579 352.368530,70.819916 
	C348.909363,69.605324 347.556396,71.024048 347.526001,74.797188 
	C348.988159,74.906403 350.393921,75.011414 352.159332,75.781921 
	C353.017609,76.155296 353.843323,76.721291 354.739105,76.872543 
	C364.745422,78.562073 372.640289,83.358170 377.638885,92.387093 
	C379.789825,96.272331 381.786774,100.242821 383.829010,104.972725 
	C383.908325,106.307526 383.987610,107.642319 383.966705,109.913948 
M84.476868,158.291122 
	C87.761391,158.291122 91.045914,158.291122 94.582214,158.291122 
	C94.582214,154.344208 94.582214,150.936096 94.582214,147.000946 
	C90.373749,147.000946 86.330132,147.000946 81.788605,147.000946 
	C83.197678,143.469330 84.551689,140.626877 85.457069,137.648071 
	C86.324226,134.795029 87.837357,133.841324 90.855392,133.925339 
	C99.011086,134.152344 107.178764,133.924103 115.337814,134.079529 
	C116.727356,134.106003 118.838715,134.765594 119.342506,135.771072 
	C121.076004,139.230820 122.244347,142.973724 123.892090,147.302460 
	C119.328979,147.302460 115.597031,147.302460 112.102234,147.302460 
	C112.102234,151.210861 112.102234,154.619598 112.102234,158.045578 
	C139.460022,158.045578 166.424667,158.045624 193.389313,158.044128 
	C193.555481,158.044128 193.722137,158.027054 193.887726,158.009827 
	C204.239182,156.932587 211.710571,150.571655 212.869003,141.850693 
	C214.227875,131.620667 209.642670,124.816399 198.718353,120.807541 
	C198.494537,120.725410 198.379562,120.346626 198.005356,119.803902 
	C198.705795,119.426758 199.371826,119.073517 200.032974,118.711319 
	C207.392365,114.679596 210.635895,108.412903 209.977478,100.123306 
	C209.334198,92.024353 204.621292,86.963387 197.227966,84.576424 
	C193.501892,83.373451 189.422287,82.898743 185.483871,82.793518 
	C176.162506,82.544487 166.829987,82.713249 157.501968,82.713127 
	C153.236984,82.713074 148.972015,82.713120 144.572968,82.713120 
	C144.572968,86.808044 144.572968,90.215698 144.572968,94.192703 
	C148.244873,94.192703 151.636063,94.192703 154.906921,94.192703 
	C154.906921,112.032211 154.906921,129.297821 154.906921,146.997025 
	C150.374023,146.997025 146.054749,146.703278 141.795929,147.084732 
	C138.004944,147.424301 136.276031,146.063416 134.918533,142.538879 
	C127.754852,123.939453 120.356316,105.429756 112.902763,86.943962 
	C112.254242,85.335541 110.655899,82.959526 109.430023,82.916916 
	C99.823799,82.582970 90.200783,82.731880 80.431961,82.731880 
	C80.431961,86.751709 80.431961,90.283997 80.431961,94.143829 
	C84.389336,94.143829 87.982681,94.143829 92.084496,94.143829 
	C85.885117,108.982132 79.597359,123.244911 74.008408,137.776459 
	C71.597725,144.044327 69.019859,148.712784 61.293739,147.196365 
	C61.091095,147.156586 60.802330,147.555573 60.662880,147.664597 
	C60.662880,151.166946 60.662880,154.562820 60.662880,158.291260 
	C68.521423,158.291260 76.001686,158.291260 84.476868,158.291122 
M563.946350,92.282112 
	C567.160095,93.147346 570.373901,94.012581 574.046692,95.001404 
	C574.046692,95.576172 574.180725,96.714027 574.026306,97.811302 
	C572.150146,111.144920 570.470581,124.512749 568.239990,137.787659 
	C566.748352,146.664719 566.390503,146.600128 557.830933,147.110947 
	C557.549805,147.127716 557.286255,147.439285 556.961914,147.647141 
	C556.961914,156.551987 556.961914,165.482010 556.961914,174.559265 
	C560.750793,174.559265 564.279602,174.559265 568.119934,174.559265 
	C568.119934,169.068710 568.119934,163.946640 568.119934,158.570496 
	C587.501343,158.570496 606.565674,158.570496 626.156372,158.570496 
	C626.156372,164.083237 626.156372,169.329132 626.156372,174.713776 
	C630.113281,174.713776 633.542542,174.713776 637.239990,174.713776 
	C637.239990,165.423645 637.239990,156.351440 637.239990,146.741058 
	C633.204102,146.741058 629.473450,146.741058 625.835449,146.741058 
	C625.835449,128.939056 625.835449,111.677620 625.835449,93.872955 
	C629.341064,93.872955 632.575623,93.872955 635.706238,93.872955 
	C635.706238,89.893181 635.706238,86.465439 635.706238,83.062271 
	C611.687622,83.062271 587.965271,83.062271 563.930786,83.062271 
	C563.930786,86.047501 563.930786,88.689575 563.946350,92.282112 
M358.448547,92.944199 
	C351.220032,88.821754 342.059845,89.395653 335.380798,95.527290 
	C338.699493,95.527290 340.809448,95.966370 342.653687,95.452278 
	C351.242584,93.058113 362.948395,98.338936 363.565369,105.613007 
	C364.385437,115.281578 364.368011,125.019348 364.838226,134.721207 
	C364.917694,136.360809 365.641144,137.969208 366.067078,139.592041 
	C368.140747,138.335388 369.472900,137.145645 369.475403,135.953110 
	C369.492340,127.931023 369.436157,119.896774 368.992950,111.889191 
	C368.570618,104.258018 366.173859,97.432556 358.448547,92.944199 
M331.995605,127.321259 
	C332.336182,117.361778 330.373230,107.285042 334.109833,97.330635 
	C329.810516,98.939346 327.295807,101.511406 327.099426,105.586723 
	C326.875519,110.233208 326.922729,114.904732 327.099243,119.556007 
	C327.458618,129.028351 325.614777,137.692184 319.302429,145.205139 
	C318.102295,146.633560 318.425079,149.341568 318.045197,151.459167 
	C318.642792,151.611206 319.240387,151.763229 319.837982,151.915268 
	C326.486969,145.441666 330.785614,137.692703 331.995605,127.321259 
M318.772034,90.381279 
	C324.927155,82.295975 333.803040,77.869324 342.937500,72.872154 
	C341.552460,72.253204 340.531036,71.360313 339.884857,71.578552 
	C335.570099,73.035759 331.121521,74.322685 327.115845,76.425690 
	C316.234985,82.138176 310.714355,92.045784 307.499878,103.385658 
	C307.050446,104.971153 308.340576,107.049744 308.825470,108.900078 
	C310.094269,107.740273 311.873138,106.816200 312.538086,105.377327 
	C314.704681,100.689186 316.464417,95.813011 318.772034,90.381279 
M307.869507,118.499336 
	C306.882050,124.758713 305.894562,131.018082 304.787903,138.032990 
	C312.704437,134.214508 312.545105,127.882660 312.989197,121.867126 
	C313.216644,118.786415 311.616608,117.635460 307.869507,118.499336 
M332.648773,142.356689 
	C330.448883,145.594589 328.177124,148.787399 326.098816,152.101547 
	C325.567841,152.948257 325.649445,154.179153 325.449615,155.233551 
	C326.687012,155.381683 328.620514,156.104004 329.048767,155.584778 
	C331.822906,152.221283 334.442535,148.691772 336.689178,144.961533 
	C337.191254,144.127884 336.007385,142.278839 335.599701,140.897293 
	C334.807678,141.256836 334.015656,141.616379 332.648773,142.356689 
M365.061615,143.378021 
	C363.824371,144.309586 362.021454,144.982986 361.456390,146.221268 
	C359.788757,149.875702 358.610992,153.753693 356.597504,159.326767 
	C359.486267,158.093170 362.042847,157.828888 362.791138,156.526016 
	C364.996857,152.685608 368.023468,148.751297 365.061615,143.378021 
z"/>
<path fill="#4ABBF1" opacity="1.000000" stroke="none" 
	d="
M397.374268,141.931763 
	C397.297668,141.487564 397.221069,141.043350 397.417969,139.979675 
	C397.466431,127.884460 397.286102,116.407387 396.938202,104.935402 
	C396.907684,103.930138 395.777618,102.958229 395.158264,101.970825 
	C391.166595,86.104126 382.005188,74.526245 366.915253,67.827057 
	C360.193481,64.842926 353.195862,63.407520 345.843262,63.858723 
	C327.103149,65.008743 313.598969,74.245102 304.942871,90.689323 
	C301.259338,97.687042 299.678345,105.205688 299.990265,113.199066 
	C300.275604,120.510658 300.077606,127.842575 300.034943,135.165192 
	C299.955170,148.865005 287.863708,160.932037 274.159027,160.865417 
	C270.148529,160.845947 266.143738,159.650696 262.438538,158.545197 
	C266.983215,158.096054 271.225739,158.096054 275.979218,158.096054 
	C275.979218,154.075043 275.979218,150.659439 276.390198,147.251923 
	C285.890259,146.610916 290.866150,134.844315 285.875549,126.735382 
	C280.426727,117.881790 267.300293,117.220886 260.971680,124.605400 
	C260.890045,114.243202 260.890045,104.348473 260.890045,94.478378 
	C267.407654,94.478378 273.097260,94.478378 279.357330,94.478378 
	C279.357330,100.160645 279.357330,105.390289 279.357330,110.516914 
	C283.507202,110.516914 287.050415,110.516914 290.600830,110.516914 
	C290.600830,99.189133 290.600830,88.306496 290.600830,76.830025 
	C286.808228,76.830025 283.363922,76.830025 279.919617,76.830032 
	C289.902710,66.856514 299.727753,56.715313 309.992493,47.040627 
	C312.243164,44.919331 316.047455,43.430634 319.156036,43.395428 
	C344.969727,43.103054 370.792816,43.485332 396.601562,43.023109 
	C402.874237,42.910770 405.955627,45.404156 408.402863,50.410530 
	C412.775543,59.355740 417.252197,68.253494 421.908539,77.053001 
	C422.606018,78.371094 424.415314,79.685669 425.878601,79.911613 
	C431.938873,80.847382 438.063782,81.364433 444.248718,82.410690 
	C433.890106,82.815331 423.447784,82.855110 413.005432,82.870636 
	C403.262299,82.885117 403.258392,82.874199 404.323364,92.792770 
	C404.353546,93.074066 404.677307,93.323845 405.023315,93.813499 
	C408.092957,93.961960 411.328979,94.118462 415.043579,94.298111 
	C415.043579,101.803848 415.125824,108.898468 415.000031,115.989395 
	C414.954529,118.555992 414.410889,121.113762 413.726990,123.781036 
	C409.002960,127.190536 406.881836,131.582489 408.440033,136.871567 
	C409.461182,140.337646 411.599030,143.474762 412.780853,146.838501 
	C410.501801,146.941391 408.566071,146.599579 406.894257,147.114532 
	C405.742157,147.469391 404.955444,149.010651 403.656799,150.017609 
	C402.843292,150.032196 402.378418,150.050888 401.913544,150.069580 
	C401.913544,150.069580 402.001831,150.007446 401.993774,149.664246 
	C400.448547,146.857941 398.911407,144.394852 397.374268,141.931763 
z"/>
<path fill="#0478B6" opacity="1.000000" stroke="none" 
	d="
M83.979408,158.291199 
	C76.001686,158.291260 68.521423,158.291260 60.662880,158.291260 
	C60.662880,154.562820 60.662880,151.166946 60.662880,147.664597 
	C60.802330,147.555573 61.091095,147.156586 61.293739,147.196365 
	C69.019859,148.712784 71.597725,144.044327 74.008408,137.776459 
	C79.597359,123.244911 85.885117,108.982132 92.084496,94.143829 
	C87.982681,94.143829 84.389336,94.143829 80.431961,94.143829 
	C80.431961,90.283997 80.431961,86.751709 80.431961,82.731880 
	C90.200783,82.731880 99.823799,82.582970 109.430023,82.916916 
	C110.655899,82.959526 112.254242,85.335541 112.902763,86.943962 
	C120.356316,105.429756 127.754852,123.939453 134.918533,142.538879 
	C136.276031,146.063416 138.004944,147.424301 141.795929,147.084732 
	C146.054749,146.703278 150.374023,146.997025 154.906921,146.997025 
	C154.906921,129.297821 154.906921,112.032211 154.906921,94.192703 
	C151.636063,94.192703 148.244873,94.192703 144.572968,94.192703 
	C144.572968,90.215698 144.572968,86.808044 144.572968,82.713120 
	C148.972015,82.713120 153.236984,82.713074 157.501968,82.713127 
	C166.829987,82.713249 176.162506,82.544487 185.483871,82.793518 
	C189.422287,82.898743 193.501892,83.373451 197.227966,84.576424 
	C204.621292,86.963387 209.334198,92.024353 209.977478,100.123306 
	C210.635895,108.412903 207.392365,114.679596 200.032974,118.711319 
	C199.371826,119.073517 198.705795,119.426758 198.005356,119.803902 
	C198.379562,120.346626 198.494537,120.725410 198.718353,120.807541 
	C209.642670,124.816399 214.227875,131.620667 212.869003,141.850693 
	C211.710571,150.571655 204.239182,156.932587 193.887726,158.009827 
	C193.722137,158.027054 193.555481,158.044128 193.389313,158.044128 
	C166.424667,158.045624 139.460022,158.045578 112.102234,158.045578 
	C112.102234,154.619598 112.102234,151.210861 112.102234,147.302460 
	C115.597031,147.302460 119.328979,147.302460 123.892090,147.302460 
	C122.244347,142.973724 121.076004,139.230820 119.342506,135.771072 
	C118.838715,134.765594 116.727356,134.106003 115.337814,134.079529 
	C107.178764,133.924103 99.011086,134.152344 90.855392,133.925339 
	C87.837357,133.841324 86.324226,134.795029 85.457069,137.648071 
	C84.551689,140.626877 83.197678,143.469330 81.788605,147.000946 
	C86.330132,147.000946 90.373749,147.000946 94.582214,147.000946 
	C94.582214,150.936096 94.582214,154.344208 94.582214,158.291122 
	C91.045914,158.291122 87.761391,158.291122 83.979408,158.291199 
M199.008774,141.165558 
	C201.344147,133.589844 198.669235,127.800476 190.871536,126.780136 
	C183.131058,125.767288 175.154556,126.558434 167.294525,126.558434 
	C167.294525,133.330673 167.294525,139.917953 167.294525,146.868179 
	C174.940338,146.868179 182.413193,147.348206 189.771500,146.639221 
	C192.848495,146.342758 195.682220,143.521378 199.008774,141.165558 
M167.070099,97.705078 
	C167.070099,103.462280 167.070099,109.219490 167.070099,115.037949 
	C173.794144,115.037949 179.790710,115.245583 185.766708,114.983696 
	C192.731491,114.678474 197.038101,110.654465 197.155975,104.887764 
	C197.283325,98.657089 193.245712,94.562126 185.952728,94.116501 
	C180.643829,93.792099 175.294525,93.879890 169.979263,94.127586 
	C168.971603,94.174553 168.039078,95.834007 167.070099,97.705078 
M110.862785,113.575645 
	C108.510872,107.644295 106.158951,101.712952 103.275337,94.440720 
	C99.087814,104.618713 95.425331,113.520576 91.569626,122.892090 
	C99.414070,122.892090 106.601173,122.892090 114.428452,122.892090 
	C113.230431,119.787277 112.173882,117.049088 110.862785,113.575645 
z"/>
<path fill="#0377B6" opacity="1.000000" stroke="none" 
	d="
M563.938599,91.806877 
	C563.930786,88.689575 563.930786,86.047501 563.930786,83.062271 
	C587.965271,83.062271 611.687622,83.062271 635.706238,83.062271 
	C635.706238,86.465439 635.706238,89.893181 635.706238,93.872955 
	C632.575623,93.872955 629.341064,93.872955 625.835449,93.872955 
	C625.835449,111.677620 625.835449,128.939056 625.835449,146.741058 
	C629.473450,146.741058 633.204102,146.741058 637.239990,146.741058 
	C637.239990,156.351440 637.239990,165.423645 637.239990,174.713776 
	C633.542542,174.713776 630.113281,174.713776 626.156372,174.713776 
	C626.156372,169.329132 626.156372,164.083237 626.156372,158.570496 
	C606.565674,158.570496 587.501343,158.570496 568.119934,158.570496 
	C568.119934,163.946640 568.119934,169.068710 568.119934,174.559265 
	C564.279602,174.559265 560.750793,174.559265 556.961914,174.559265 
	C556.961914,165.482010 556.961914,156.551987 556.961914,147.647141 
	C557.286255,147.439285 557.549805,147.127716 557.830933,147.110947 
	C566.390503,146.600128 566.748352,146.664719 568.239990,137.787659 
	C570.470581,124.512749 572.150146,111.144920 574.026306,97.811302 
	C574.180725,96.714027 574.046692,95.576172 574.046692,95.001404 
	C570.373901,94.012581 567.160095,93.147346 563.938599,91.806877 
M599.502380,93.837090 
	C595.076294,93.837090 590.650269,93.837090 586.996521,93.837090 
	C584.210022,112.044189 581.551819,129.413239 578.878052,146.883423 
	C590.192871,146.883423 601.776123,146.883423 613.590332,146.883423 
	C613.590332,129.194061 613.590332,111.785034 613.590332,93.837036 
	C609.066956,93.837036 604.781250,93.837036 599.502380,93.837090 
z"/>
<path fill="#0277B6" opacity="1.000000" stroke="none" 
	d="
M469.862244,85.837372 
	C470.766144,84.799774 471.650696,82.880409 472.576843,82.860130 
	C482.520294,82.642456 492.470306,82.724586 502.670593,82.724586 
	C502.670593,86.625977 502.670593,90.036179 502.670593,93.796768 
	C499.287933,93.796768 496.011261,93.796768 492.369263,93.796768 
	C492.369263,109.151695 492.369263,124.166924 492.369263,140.057571 
	C494.350189,137.100815 495.979309,134.728073 497.548981,132.316650 
	C507.529572,116.983864 517.569580,101.688744 527.401794,86.261284 
	C529.160645,83.501511 531.076355,82.519821 534.279846,82.642776 
	C540.722534,82.890060 547.181274,82.716339 553.893372,82.716339 
	C553.893372,86.594749 553.893372,90.008965 553.893372,93.832748 
	C550.570374,93.832748 547.303223,93.832748 543.660645,93.832748 
	C543.660645,111.605377 543.660645,128.978149 543.660645,146.775452 
	C546.892944,146.775452 550.145020,146.775452 553.780273,146.775452 
	C553.780273,150.710068 553.780273,154.230637 553.780273,158.025208 
	C542.424805,158.025208 531.176086,158.025208 519.604858,158.025208 
	C519.604858,154.484436 519.604858,151.073380 519.604858,147.134354 
	C523.359070,147.134354 527.104187,147.134354 531.115173,147.134354 
	C531.115173,131.648041 531.115173,116.682793 531.115173,100.303528 
	C523.939087,111.253899 517.494690,121.055168 511.085052,130.879135 
	C505.996643,138.678055 500.760284,146.390442 495.972382,154.370895 
	C493.816711,157.964005 491.362793,159.625046 487.181793,158.986343 
	C485.086792,158.666290 482.902527,158.930542 480.006470,158.930542 
	C480.006470,150.716843 480.006470,142.792175 480.070404,133.939270 
	C480.075958,127.343719 480.017548,121.676414 479.998169,115.540451 
	C480.049530,109.280220 480.172119,103.485039 479.983673,97.699989 
	C479.944763,96.505424 478.747620,95.348595 477.633240,94.119339 
	C474.928558,94.064316 472.675018,94.064316 470.249023,94.064316 
	C470.094299,90.773132 469.978271,88.305252 469.862244,85.837372 
z"/>
<path fill="#0278B6" opacity="1.000000" stroke="none" 
	d="
M275.979218,147.243805 
	C275.979218,150.659439 275.979218,154.075043 275.979218,158.096054 
	C271.225739,158.096054 266.983215,158.096054 262.279358,158.221756 
	C252.422241,158.347458 243.026443,158.347458 233.353058,158.347458 
	C233.353058,154.454071 233.353058,151.057480 233.353058,146.953812 
	C237.906601,146.953812 242.471970,146.953812 247.867126,146.717819 
	C248.696945,129.108185 248.696945,111.734528 248.696945,94.435562 
	C242.175949,94.435562 236.289963,94.435562 229.822662,94.435562 
	C229.822662,100.084061 229.822662,105.316063 229.822662,110.697746 
	C226.770660,110.867065 224.302200,111.004013 221.500381,111.051971 
	C220.480789,110.911148 219.794556,110.859306 219.108337,110.807465 
	C219.108337,99.700165 219.108337,88.592865 219.108337,77.101051 
	C222.491180,77.101051 225.884201,77.101051 229.659729,77.101051 
	C229.869812,78.595352 230.113602,80.329407 230.447083,82.701416 
	C236.118698,82.701416 241.886078,82.810226 247.647736,82.675491 
	C255.951797,82.481300 264.282349,82.423897 272.534210,81.618042 
	C274.922119,81.384834 277.079132,78.786949 279.630798,77.051575 
	C283.363922,76.830025 286.808228,76.830025 290.600830,76.830025 
	C290.600830,88.306496 290.600830,99.189133 290.600830,110.516914 
	C287.050415,110.516914 283.507202,110.516914 279.357330,110.516914 
	C279.357330,105.390289 279.357330,100.160645 279.357330,94.478378 
	C273.097260,94.478378 267.407654,94.478378 260.890045,94.478378 
	C260.890045,104.348473 260.890045,114.243202 260.941406,125.067009 
	C261.013794,131.640930 261.034790,137.285782 260.965881,143.334930 
	C260.705292,146.106293 261.453613,147.501785 264.600647,146.864166 
	C268.693420,147.008972 272.336304,147.126389 275.979218,147.243805 
z"/>
<path fill="#0277B6" opacity="1.000000" stroke="none" 
	d="
M414.094543,123.675552 
	C414.410889,121.113762 414.954529,118.555992 415.000031,115.989395 
	C415.125824,108.898468 415.043579,101.803848 415.043579,94.298111 
	C411.328979,94.118462 408.092957,93.961960 405.023315,93.813499 
	C404.677307,93.323845 404.353546,93.074066 404.323364,92.792770 
	C403.258392,82.874199 403.262299,82.885117 413.005432,82.870636 
	C423.447784,82.855110 433.890106,82.815331 444.679993,82.570099 
	C447.500000,82.354057 449.972443,82.354057 452.826935,82.354057 
	C453.094421,80.392281 453.351227,78.508896 453.644348,76.359070 
	C457.288025,76.359070 460.837036,76.359070 465.006592,76.359070 
	C465.006592,78.638947 465.006592,80.886253 464.961853,84.045288 
	C464.917145,93.196892 464.917145,101.436752 464.917145,109.732407 
	C460.676849,109.732407 457.123962,109.732407 452.851501,109.732407 
	C452.851501,104.340904 452.851501,99.309700 452.851501,94.400375 
	C443.896790,94.400375 435.677368,94.400375 427.171112,94.400375 
	C427.171112,103.229286 427.171112,111.672974 427.134338,120.577805 
	C427.097534,129.576065 427.097534,138.113190 427.097534,146.803162 
	C429.254761,146.803162 431.031403,146.803162 433.274353,146.885406 
	C435.880432,146.975174 438.075775,146.688553 440.143280,147.078873 
	C441.949738,147.419952 443.612274,148.523026 445.338409,149.289429 
	C445.338409,152.067596 445.338409,154.845779 445.338409,158.377274 
	C441.638519,158.377274 438.402496,158.377274 434.250916,158.263214 
	C426.453339,158.257675 419.571350,158.366211 412.689362,158.474731 
	C410.917908,158.411911 409.132385,158.179565 407.378296,158.325378 
	C404.643921,158.552673 404.023499,157.114670 404.325714,154.153656 
	C404.303223,152.326508 404.154297,151.174088 404.005402,150.021698 
	C404.955444,149.010651 405.742157,147.469391 406.894257,147.114532 
	C408.566071,146.599579 410.501801,146.941391 413.177124,146.814072 
	C414.051056,139.032074 414.072784,131.353806 414.094543,123.675552 
z"/>
<path fill="#45BAF1" opacity="1.000000" stroke="none" 
	d="
M427.171112,120.116653 
	C427.171112,111.672974 427.171112,103.229286 427.171112,94.400375 
	C435.677368,94.400375 443.896790,94.400375 452.851501,94.400375 
	C452.851501,99.309700 452.851501,104.340904 452.851501,109.732407 
	C457.123962,109.732407 460.676849,109.732407 464.917145,109.732407 
	C464.917145,101.436752 464.917145,93.196892 464.983704,84.498497 
	C466.429443,84.636055 467.808563,85.232147 469.524963,85.832809 
	C469.978271,88.305252 470.094299,90.773132 470.249023,94.064316 
	C472.675018,94.064316 474.928558,94.064316 477.612000,94.572754 
	C478.035492,100.789192 477.913269,106.501213 478.111053,112.202110 
	C478.155762,113.490921 479.313690,114.741119 479.959167,116.009094 
	C480.017548,121.676414 480.075958,127.343719 480.062469,133.465637 
	C471.908569,133.940430 463.816559,134.206406 455.748718,133.878189 
	C451.651794,133.711517 450.259613,135.749054 449.294342,139.048279 
	C448.311279,142.408249 447.113312,145.705368 445.673920,149.159729 
	C443.612274,148.523026 441.949738,147.419952 440.143280,147.078873 
	C438.075775,146.688553 435.880432,146.975174 433.342987,146.540710 
	C434.207947,144.413422 435.829437,142.873047 436.670837,140.985001 
	C440.285034,132.875092 437.867371,122.096016 427.171112,120.116653 
z"/>
<path fill="#46BAF0" opacity="1.000000" stroke="none" 
	d="
M221.833755,111.140961 
	C224.302200,111.004013 226.770660,110.867065 229.822662,110.697746 
	C229.822662,105.316063 229.822662,100.084061 229.822662,94.435562 
	C236.289963,94.435562 242.175949,94.435562 248.696945,94.435562 
	C248.696945,111.734528 248.696945,129.108185 248.330963,146.683075 
	C247.342621,144.188919 246.720276,141.493515 246.102570,137.996490 
	C246.320358,133.574844 243.798447,133.288605 241.193115,133.262054 
	C236.240067,133.211548 231.283478,133.155243 226.333496,133.289917 
	C223.406937,133.369537 221.580215,132.780899 221.677734,129.267761 
	C221.698853,128.507767 219.938187,127.698334 218.998230,126.911667 
	C218.615295,126.867409 218.232361,126.823143 217.471909,126.459290 
	C216.334579,125.446159 215.574768,124.752617 214.814972,124.059067 
	C214.837250,122.957436 214.859543,121.855797 215.189758,120.256157 
	C218.931396,117.857567 223.360947,116.689201 221.833755,111.140961 
z"/>
<path fill="#70C8F2" opacity="1.000000" stroke="none" 
	d="
M358.808044,93.042999 
	C366.173859,97.432556 368.570618,104.258018 368.992950,111.889191 
	C369.436157,119.896774 369.492340,127.931023 369.475403,135.953110 
	C369.472900,137.145645 368.140747,138.335388 366.067078,139.592041 
	C365.641144,137.969208 364.917694,136.360809 364.838226,134.721207 
	C364.368011,125.019348 364.385437,115.281578 363.565369,105.613007 
	C362.948395,98.338936 351.242584,93.058113 342.653687,95.452278 
	C340.809448,95.966370 338.699493,95.527290 335.380798,95.527290 
	C342.059845,89.395653 351.220032,88.821754 358.808044,93.042999 
z"/>
<path fill="#82CFF3" opacity="1.000000" stroke="none" 
	d="
M331.984833,127.788643 
	C330.785614,137.692703 326.486969,145.441666 319.837982,151.915268 
	C319.240387,151.763229 318.642792,151.611206 318.045197,151.459167 
	C318.425079,149.341568 318.102295,146.633560 319.302429,145.205139 
	C325.614777,137.692184 327.458618,129.028351 327.099243,119.556007 
	C326.922729,114.904732 326.875519,110.233208 327.099426,105.586723 
	C327.295807,101.511406 329.810516,98.939346 334.109833,97.330635 
	C330.373230,107.285042 332.336182,117.361778 331.984833,127.788643 
z"/>
<path fill="#79CCF2" opacity="1.000000" stroke="none" 
	d="
M318.576385,90.695236 
	C316.464417,95.813011 314.704681,100.689186 312.538086,105.377327 
	C311.873138,106.816200 310.094269,107.740273 308.825470,108.900078 
	C308.340576,107.049744 307.050446,104.971153 307.499878,103.385658 
	C310.714355,92.045784 316.234985,82.138176 327.115845,76.425690 
	C331.121521,74.322685 335.570099,73.035759 339.884857,71.578552 
	C340.531036,71.360313 341.552460,72.253204 342.937500,72.872154 
	C333.803040,77.869324 324.927155,82.295975 318.576385,90.695236 
z"/>
<path fill="#7DCDF2" opacity="1.000000" stroke="none" 
	d="
M358.982422,73.048859 
	C370.653778,75.350723 378.571106,82.589287 383.785828,92.793022 
	C385.882751,96.896126 386.652283,101.677643 387.646790,106.516685 
	C386.129669,105.980171 384.991699,105.077370 383.853729,104.174568 
	C381.786774,100.242821 379.789825,96.272331 377.638885,92.387093 
	C372.640289,83.358170 364.745422,78.562073 354.739105,76.872543 
	C353.843323,76.721291 353.017609,76.155296 352.418701,75.402229 
	C354.779510,74.364647 356.880951,73.706749 358.982422,73.048859 
z"/>
<path fill="#79CCF2" opacity="1.000000" stroke="none" 
	d="
M358.828888,137.978256 
	C357.391663,142.096970 356.029816,146.244202 354.487640,150.323242 
	C353.624878,152.605286 352.688599,154.921860 351.363556,156.946808 
	C350.327332,158.530411 348.641815,159.689163 346.593719,160.629074 
	C344.854736,154.528839 351.178467,151.648224 351.867584,146.465347 
	C352.567566,141.200806 354.627106,136.117050 356.486755,131.195068 
	C357.531158,133.616760 358.180023,135.797501 358.828888,137.978256 
z"/>
<path fill="#76CBF2" opacity="1.000000" stroke="none" 
	d="
M318.062378,104.006340 
	C318.085541,103.574081 318.108704,103.141823 318.528931,102.299126 
	C320.292816,98.941315 321.659607,95.993950 323.026428,93.046585 
	C326.137207,88.859169 329.343170,84.814804 335.641296,85.294083 
	C335.988922,86.453606 335.984558,87.209381 335.980194,87.965157 
	C330.115570,90.746040 326.346497,95.649048 323.259796,101.057907 
	C322.275482,102.782669 322.351562,105.112564 321.623352,107.576523 
	C321.304230,107.987473 320.830017,108.015350 320.601959,107.772705 
	C319.898621,106.351273 319.423370,105.172485 318.726685,103.995537 
	C318.505219,103.997368 318.062408,104.006340 318.062378,104.006340 
z"/>
<path fill="#70C8F2" opacity="1.000000" stroke="none" 
	d="
M378.920624,111.005203 
	C378.971527,118.386940 379.022400,125.768669 378.685852,133.572968 
	C377.866028,133.996414 377.433624,133.997284 377.000610,133.999084 
	C377.000000,134.000000 377.002441,133.999390 377.002228,133.530884 
	C377.001495,127.654335 377.123596,122.241478 376.911896,116.841690 
	C376.860779,115.537643 375.705750,114.276878 375.058380,112.996208 
	C374.176636,110.028656 373.061157,107.102341 372.526764,104.073509 
	C372.309082,102.839790 373.352753,101.383514 373.822540,100.028488 
	C374.925690,101.013565 376.028870,101.998650 377.080811,103.824547 
	C377.659973,106.778648 378.290283,108.891930 378.920624,111.005203 
z"/>
<path fill="#70C8F2" opacity="1.000000" stroke="none" 
	d="
M348.046997,140.079422 
	C347.982544,140.797745 347.918091,141.516068 347.440308,142.674911 
	C346.413696,144.505585 345.800385,145.895737 345.187073,147.285889 
	C343.479706,150.712204 342.047638,154.327484 339.902161,157.453079 
	C339.232880,158.428146 336.635864,158.080032 334.364624,158.421280 
	C339.156952,150.258408 344.064941,143.460922 345.588623,134.464294 
	C346.627441,134.021835 347.265167,134.004944 348.222229,133.989624 
	C348.965607,133.983047 349.389709,133.974899 349.813812,133.966751 
	C349.854675,134.409897 349.895538,134.853043 349.534790,135.717834 
	C348.771118,137.452789 348.409058,138.766098 348.046997,140.079422 
z"/>
<path fill="#89D2F3" opacity="1.000000" stroke="none" 
	d="
M308.263306,118.356903 
	C311.616608,117.635460 313.216644,118.786415 312.989197,121.867126 
	C312.545105,127.882660 312.704437,134.214508 304.787903,138.032990 
	C305.894562,131.018082 306.882050,124.758713 308.263306,118.356903 
z"/>
<path fill="#CAEBF9" opacity="1.000000" stroke="none" 
	d="
M219.002655,127.350639 
	C219.938187,127.698334 221.698853,128.507767 221.677734,129.267761 
	C221.580215,132.780899 223.406937,133.369537 226.333496,133.289917 
	C231.283478,133.155243 236.240067,133.211548 241.193115,133.262054 
	C243.798447,133.288605 246.320358,133.574844 246.050995,137.598648 
	C241.733292,137.332458 237.485657,136.544617 233.204636,136.040207 
	C230.921906,135.771271 228.581406,136.003281 226.267090,135.989899 
	C219.865234,135.952881 219.122269,135.109421 219.002655,127.350639 
z"/>
<path fill="#70C8F2" opacity="1.000000" stroke="none" 
	d="
M350.998413,103.984985 
	C342.407776,104.403954 341.403351,105.498291 340.188354,115.583328 
	C339.432373,115.981743 339.195129,115.994362 338.645264,116.005264 
	C337.716858,115.962631 337.101105,115.921692 336.485321,115.880753 
	C336.383759,113.891922 336.282227,111.903091 336.580353,109.396164 
	C337.574493,107.468613 338.168976,106.059174 338.763428,104.649727 
	C340.981842,100.359192 344.859039,99.711960 349.564575,100.330246 
	C350.332153,101.815407 350.665283,102.900192 350.998413,103.984985 
z"/>
<path fill="#89D2F3" opacity="1.000000" stroke="none" 
	d="
M332.936218,142.166290 
	C334.015656,141.616379 334.807678,141.256836 335.599701,140.897293 
	C336.007385,142.278839 337.191254,144.127884 336.689178,144.961533 
	C334.442535,148.691772 331.822906,152.221283 329.048767,155.584778 
	C328.620514,156.104004 326.687012,155.381683 325.449585,155.233551 
	C325.649445,154.179153 325.567841,152.948257 326.098816,152.101547 
	C328.177124,148.787399 330.448883,145.594589 332.936218,142.166290 
z"/>
<path fill="#79CCF2" opacity="1.000000" stroke="none" 
	d="
M365.328430,143.585693 
	C368.023468,148.751297 364.996857,152.685608 362.791138,156.526016 
	C362.042847,157.828888 359.486267,158.093170 356.597504,159.326767 
	C358.610992,153.753693 359.788757,149.875702 361.456390,146.221268 
	C362.021454,144.982986 363.824371,144.309586 365.328430,143.585693 
z"/>
<path fill="#68C6F1" opacity="1.000000" stroke="none" 
	d="
M383.841370,104.573639 
	C384.991699,105.077370 386.129669,105.980171 387.602661,106.946022 
	C388.037170,108.040009 388.136658,109.070961 388.201355,110.956558 
	C388.209198,119.911461 388.251862,128.011703 388.294525,136.111938 
	C388.202850,137.138168 388.111176,138.164398 387.565369,139.574951 
	C386.086945,139.967453 385.062653,139.975662 384.038361,139.983856 
	C384.027710,138.930466 384.017029,137.877075 384.453247,136.327438 
	C385.245178,135.309265 385.885437,134.790405 385.890900,134.264938 
	C385.970581,126.642227 386.023010,119.017662 385.896027,111.396645 
	C385.882446,110.580200 384.704651,109.783157 384.066895,108.977119 
	C383.987610,107.642319 383.908325,106.307526 383.841370,104.573639 
z"/>
<path fill="#8FD4F4" opacity="1.000000" stroke="none" 
	d="
M336.353271,116.344368 
	C337.101105,115.921692 337.716858,115.962631 338.649902,116.469711 
	C338.967163,121.322273 338.967163,125.708694 338.967163,130.507965 
	C339.945709,129.752197 340.440277,129.370239 340.934845,128.988297 
	C340.361145,131.577454 339.951111,134.222717 339.097015,136.715805 
	C338.887115,137.328537 337.003998,137.954926 336.299347,137.644882 
	C335.606232,137.339905 335.050781,135.835983 335.093872,134.888123 
	C335.368103,128.856796 335.824707,122.833755 336.353271,116.344368 
z"/>
<path fill="#72C1E8" opacity="1.000000" stroke="none" 
	d="
M395.096680,102.437927 
	C395.777618,102.958229 396.907684,103.930138 396.938202,104.935402 
	C397.286102,116.407387 397.466431,127.884460 397.440521,139.640930 
	C396.531982,138.281052 395.339294,136.651947 395.303711,134.997910 
	C395.073456,124.303314 395.095642,113.603279 395.096680,102.437927 
z"/>
<path fill="#72C1E8" opacity="1.000000" stroke="none" 
	d="
M412.780121,158.829987 
	C419.571350,158.366211 426.453339,158.257675 433.804504,158.291809 
	C431.493225,161.161041 423.364166,162.935272 419.981201,161.641617 
	C417.640289,160.746460 415.242981,159.998825 412.780121,158.829987 
z"/>
<path fill="#8FD4F4" opacity="1.000000" stroke="none" 
	d="
M351.137512,104.316132 
	C350.665283,102.900192 350.332153,101.815407 349.992706,100.385056 
	C351.251373,100.502068 352.666290,100.745255 353.744049,101.481789 
	C355.146881,102.440475 356.282074,103.790833 357.508881,104.950371 
	C358.092804,107.066017 358.771393,109.524513 359.449951,111.983017 
	C359.826996,111.929276 360.204010,111.875542 360.581055,111.821800 
	C359.831818,113.023926 359.082581,114.226051 357.652527,116.520485 
	C355.324585,112.185425 353.300568,108.416359 351.137512,104.316132 
z"/>
<path fill="#79CCF2" opacity="1.000000" stroke="none" 
	d="
M320.180878,131.140167 
	C318.675659,134.897507 317.452423,138.810715 315.509369,142.326050 
	C314.846191,143.525848 312.374725,143.726151 310.729492,144.383133 
	C311.080414,142.768036 311.152039,141.021286 311.838684,139.564423 
	C313.415070,136.219803 315.291138,133.016434 317.377686,129.381577 
	C317.709778,129.007416 318.182129,128.978104 318.403137,129.181030 
	C319.143036,129.969376 319.661957,130.554764 320.180878,131.140167 
z"/>
<path fill="#8FD4F4" opacity="1.000000" stroke="none" 
	d="
M347.902924,133.988052 
	C347.265167,134.004944 346.627441,134.021835 345.676422,134.067093 
	C345.285522,127.197701 345.060455,120.295860 345.251190,113.405533 
	C345.290649,111.979790 346.876190,110.596832 347.749146,109.194153 
	C348.522400,110.204185 349.295685,111.214226 349.774048,112.430878 
	C348.974915,113.014786 348.037231,113.384987 348.030914,113.770439 
	C347.920471,120.508530 347.924103,127.248497 347.902924,133.988052 
z"/>
<path fill="#76CBF2" opacity="1.000000" stroke="none" 
	d="
M374.816620,139.536423 
	C374.846802,137.953583 374.876984,136.370758 375.293823,134.393860 
	C376.121124,133.999664 376.561768,133.999527 377.002441,133.999390 
	C377.002441,133.999390 377.000000,134.000000 377.000153,134.451660 
	C377.037903,137.358231 377.075531,139.813141 377.113129,142.268051 
	C376.459045,145.249084 376.084961,148.336349 375.013977,151.159210 
	C374.581604,152.298782 372.625183,152.860123 371.362335,153.684616 
	C371.302063,152.176849 371.241760,150.669098 371.790710,149.058258 
	C372.645142,148.754822 372.890350,148.554474 373.135590,148.354126 
	C372.756256,148.236084 372.376923,148.118042 371.997589,148.000000 
	C372.047272,147.247620 372.096954,146.495255 372.630371,145.352844 
	C373.681610,143.154022 374.249115,141.345230 374.816620,139.536423 
z"/>
<path fill="#CAEBF9" opacity="1.000000" stroke="none" 
	d="
M388.636169,135.975189 
	C388.251862,128.011703 388.209198,119.911461 388.263794,111.339699 
	C389.055298,111.902313 390.383606,112.962502 390.342346,113.966393 
	C390.042389,121.263451 389.466522,128.549164 388.636169,135.975189 
z"/>
<path fill="#82CFF3" opacity="1.000000" stroke="none" 
	d="
M361.002075,83.998444 
	C367.845490,85.086861 370.675262,89.660233 371.194641,97.366325 
	C369.981018,95.614609 369.472778,94.459023 368.605408,93.731628 
	C367.415619,92.733887 365.953522,92.060913 364.265503,90.717003 
	C362.878296,89.253616 361.944916,88.136566 360.765717,87.429413 
	C358.397705,86.009315 359.285797,85.025795 361.002075,83.998444 
z"/>
<path fill="#8FD4F4" opacity="1.000000" stroke="none" 
	d="
M384.016815,109.445534 
	C384.704651,109.783157 385.882446,110.580200 385.896027,111.396645 
	C386.023010,119.017662 385.970581,126.642227 385.890900,134.264938 
	C385.885437,134.790405 385.245178,135.309265 384.514221,135.935974 
	C384.074493,127.331810 384.020599,118.622879 384.016815,109.445534 
z"/>
<path fill="#68C6F1" opacity="1.000000" stroke="none" 
	d="
M358.699982,72.828018 
	C356.880951,73.706749 354.779510,74.364647 352.238861,75.069473 
	C350.393921,75.011414 348.988159,74.906403 347.526001,74.797188 
	C347.556396,71.024048 348.909363,69.605324 352.368530,70.819916 
	C354.349792,71.515579 356.398956,72.017845 358.699982,72.828018 
z"/>
<path fill="#5FC3F0" opacity="1.000000" stroke="none" 
	d="
M340.959076,85.925331 
	C340.220795,85.986687 339.482513,86.048050 338.419739,85.739746 
	C338.405365,84.260918 338.715454,83.151756 339.025574,82.042587 
	C340.019318,81.951393 341.013031,81.860191 342.852600,81.848831 
	C346.547577,81.869225 349.396729,81.809769 352.245880,81.750320 
	C353.550354,81.826080 354.854858,81.901840 356.550781,82.358627 
	C356.923828,83.873322 356.905457,85.006989 356.887054,86.140656 
	C356.473938,86.102165 356.060852,86.063667 355.239014,85.594925 
	C350.114899,83.746452 345.398682,82.313759 340.959076,85.925331 
z"/>
<path fill="#57C0F0" opacity="1.000000" stroke="none" 
	d="
M348.222229,133.989624 
	C347.924103,127.248497 347.920471,120.508530 348.030914,113.770439 
	C348.037231,113.384987 348.974915,113.014786 349.731079,112.821014 
	C349.977661,119.684669 349.972351,126.364799 349.890411,133.505844 
	C349.389709,133.974899 348.965607,133.983047 348.222229,133.989624 
z"/>
<path fill="#7DCDF2" opacity="1.000000" stroke="none" 
	d="
M377.002228,133.530884 
	C376.561768,133.999527 376.121124,133.999664 375.350159,134.000519 
	C374.999237,127.310677 374.978638,120.620102 375.008179,113.462868 
	C375.705750,114.276878 376.860779,115.537643 376.911896,116.841690 
	C377.123596,122.241478 377.001495,127.654335 377.002228,133.530884 
z"/>
<path fill="#9AD8F5" opacity="1.000000" stroke="none" 
	d="
M317.680450,104.123154 
	C318.062408,104.006340 318.505219,103.997368 318.718994,104.459518 
	C318.638092,109.276527 318.343445,113.631393 318.048767,117.986259 
	C315.581451,115.530273 315.214142,108.800591 317.680450,104.123154 
z"/>
<path fill="#CAEBF9" opacity="1.000000" stroke="none" 
	d="
M221.500381,111.051971 
	C223.360947,116.689201 218.931396,117.857567 215.136261,119.845993 
	C215.374405,118.541763 215.898285,117.110451 216.594101,115.768265 
	C217.336670,114.335838 218.241638,112.987587 219.092026,111.205032 
	C219.794556,110.859306 220.480789,110.911148 221.500381,111.051971 
z"/>
<path fill="#70C8F2" opacity="1.000000" stroke="none" 
	d="
M358.912659,137.603516 
	C358.180023,135.797501 357.531158,133.616760 356.788940,130.976196 
	C356.719604,128.288864 356.743622,126.061333 357.235046,123.491669 
	C358.158112,126.820450 358.613800,130.491348 359.069489,134.162247 
	C359.045135,135.184418 359.020782,136.206604 358.912659,137.603516 
z"/>
<path fill="#79CCF2" opacity="1.000000" stroke="none" 
	d="
M359.418976,133.979675 
	C358.613800,130.491348 358.158112,126.820450 357.298462,123.064445 
	C357.066681,122.204308 357.238892,121.429268 357.432495,120.557831 
	C361.502441,123.172874 362.230988,127.729752 359.418976,133.979675 
z"/>
<path fill="#57C0F0" opacity="1.000000" stroke="none" 
	d="
M318.053436,118.315125 
	C318.343445,113.631393 318.638092,109.276527 318.940430,104.457687 
	C319.423370,105.172485 319.898621,106.351273 320.614258,108.231789 
	C320.899536,112.622322 320.944427,116.311119 320.649353,120.001762 
	C319.633392,119.980804 318.957397,119.958000 318.281403,119.935196 
	C318.206970,119.504799 318.132538,119.074394 318.053436,118.315125 
z"/>
<path fill="#76CBF2" opacity="1.000000" stroke="none" 
	d="
M318.189453,120.346359 
	C318.957397,119.958000 319.633392,119.980804 320.951080,120.006538 
	C321.993256,120.029991 322.393738,120.050522 322.794220,120.071045 
	C322.813965,122.068352 322.833710,124.065651 322.495819,126.506348 
	C321.742004,126.966927 321.345764,126.984116 320.710144,126.807312 
	C319.764587,125.770004 319.058472,124.926689 318.352356,124.083374 
	C318.267395,122.974747 318.182434,121.866135 318.189453,120.346359 
z"/>
<path fill="#9AD8F5" opacity="1.000000" stroke="none" 
	d="
M341.425323,85.972946 
	C345.398682,82.313759 350.114899,83.746452 354.930420,85.554459 
	C350.650879,85.969681 346.271240,85.995117 341.425323,85.972946 
z"/>
<path fill="#9AD8F5" opacity="1.000000" stroke="none" 
	d="
M356.994995,86.461121 
	C356.905457,85.006989 356.923828,83.873322 356.936981,82.427902 
	C358.217224,82.514931 359.502716,82.913696 360.895142,83.655457 
	C359.285797,85.025795 358.397705,86.009315 360.765717,87.429413 
	C361.944916,88.136566 362.878296,89.253616 363.978149,90.516624 
	C361.723267,89.492523 359.413116,88.137054 356.994995,86.461121 
z"/>
<path fill="#5FC3F0" opacity="1.000000" stroke="none" 
	d="
M340.976196,128.540588 
	C340.440277,129.370239 339.945709,129.752197 338.967163,130.507965 
	C338.967163,125.708694 338.967163,121.322273 338.962524,116.471413 
	C339.195129,115.994362 339.432373,115.981743 340.028076,115.936600 
	C340.596832,119.967010 340.807190,124.029945 340.976196,128.540588 
z"/>
<path fill="#9AD8F5" opacity="1.000000" stroke="none" 
	d="
M322.863647,119.611481 
	C322.393738,120.050522 321.993256,120.029991 321.291016,120.004692 
	C320.944427,116.311119 320.899536,112.622322 320.842346,108.474442 
	C320.830017,108.015350 321.304230,107.987473 321.540741,107.989662 
	C322.162506,111.711868 322.547791,115.431892 322.863647,119.611481 
z"/>
<path fill="#72C1E8" opacity="1.000000" stroke="none" 
	d="
M397.286255,142.297241 
	C398.911407,144.394852 400.448547,146.857941 401.955200,149.702332 
	C400.349213,147.609985 398.773743,145.136337 397.286255,142.297241 
z"/>
<path fill="#9AD8F5" opacity="1.000000" stroke="none" 
	d="
M352.065002,81.412643 
	C349.396729,81.809769 346.547577,81.869225 343.226929,81.840744 
	C345.798340,81.526871 348.841248,81.300919 352.065002,81.412643 
z"/>
<path fill="#9AD8F5" opacity="1.000000" stroke="none" 
	d="
M322.687897,93.123688 
	C321.659607,95.993950 320.292816,98.941315 318.608154,101.984138 
	C319.643311,99.119995 320.996338,96.160393 322.687897,93.123688 
z"/>
<path fill="#57C0F0" opacity="1.000000" stroke="none" 
	d="
M318.262085,124.453339 
	C319.058472,124.926689 319.764587,125.770004 320.713806,127.187576 
	C320.926331,128.770309 320.895752,129.778793 320.865173,130.787277 
	C320.865173,130.787277 320.524872,130.967590 320.352875,131.053879 
	C319.661957,130.554764 319.143036,129.969376 318.394958,128.868622 
	C318.138672,127.938095 318.111603,127.522903 318.084503,127.107712 
	C318.113617,126.346245 318.142700,125.584770 318.262085,124.453339 
z"/>
<path fill="#7DCDF2" opacity="1.000000" stroke="none" 
	d="
M377.438904,142.055664 
	C377.075531,139.813141 377.037903,137.358231 377.000763,134.450745 
	C377.433624,133.997284 377.866028,133.996414 378.622253,133.994278 
	C378.552277,136.609772 378.158478,139.226517 377.438904,142.055664 
z"/>
<path fill="#7DCDF2" opacity="1.000000" stroke="none" 
	d="
M374.498352,139.721008 
	C374.249115,141.345230 373.681610,143.154022 372.744141,144.992493 
	C372.976135,143.316620 373.578125,141.611099 374.498352,139.721008 
z"/>
<path fill="#9AD8F5" opacity="1.000000" stroke="none" 
	d="
M338.653076,82.013046 
	C338.715454,83.151756 338.405365,84.260918 338.049622,85.717690 
	C337.542389,86.683517 337.080811,87.301735 336.299713,87.942558 
	C335.984558,87.209381 335.988922,86.453606 335.991455,85.318832 
	C336.753326,83.954399 337.516968,82.968956 338.653076,82.013046 
z"/>
<path fill="#7DCDF2" opacity="1.000000" stroke="none" 
	d="
M378.965942,110.586426 
	C378.290283,108.891930 377.659973,106.778648 377.065552,104.223824 
	C377.738068,105.910736 378.374695,108.039185 378.965942,110.586426 
z"/>
<path fill="#8FD4F4" opacity="1.000000" stroke="none" 
	d="
M384.017395,140.356506 
	C385.062653,139.975662 386.086945,139.967453 387.493561,139.955017 
	C387.282440,140.883453 386.688965,141.816147 386.095520,142.748825 
	C385.395813,142.075592 384.696136,141.402359 384.017395,140.356506 
z"/>
<path fill="#72C1E8" opacity="1.000000" stroke="none" 
	d="
M403.656799,150.017609 
	C404.154297,151.174088 404.303223,152.326508 404.284363,153.733002 
	C403.374481,152.920898 402.632446,151.854706 401.901978,150.429047 
	C402.378418,150.050888 402.843292,150.032196 403.656799,150.017609 
z"/>
<path fill="#CAEBF9" opacity="1.000000" stroke="none" 
	d="
M214.575745,124.297050 
	C215.574768,124.752617 216.334579,125.446159 217.182312,126.471024 
	C216.292343,126.046577 215.314438,125.290802 214.575745,124.297050 
z"/>
<path fill="#8FD4F4" opacity="1.000000" stroke="none" 
	d="
M338.447174,104.801147 
	C338.168976,106.059174 337.574493,107.468613 336.669830,108.975952 
	C336.950073,107.700096 337.540497,106.326332 338.447174,104.801147 
z"/>
<path fill="#8FD4F4" opacity="1.000000" stroke="none" 
	d="
M348.395386,139.981506 
	C348.409058,138.766098 348.771118,137.452789 349.476440,136.047836 
	C349.461090,137.265320 349.102448,138.574448 348.395386,139.981506 
z"/>
<path fill="#8FD4F4" opacity="1.000000" stroke="none" 
	d="
M345.494019,147.144791 
	C345.800385,145.895737 346.413696,144.505585 347.336273,143.020508 
	C347.030670,144.284943 346.415802,145.644318 345.494019,147.144791 
z"/>
<path fill="#9AD8F5" opacity="1.000000" stroke="none" 
	d="
M321.235321,130.791351 
	C320.895752,129.778793 320.926331,128.770309 320.953247,127.381569 
	C321.345764,126.984116 321.742004,126.966927 322.432312,126.929771 
	C322.352753,128.205017 321.979095,129.500229 321.235321,130.791351 
z"/>
<path fill="#9AD8F5" opacity="1.000000" stroke="none" 
	d="
M317.793121,127.129913 
	C318.111603,127.522903 318.138672,127.938095 318.173950,128.665695 
	C318.182129,128.978104 317.709778,129.007416 317.474243,129.004364 
	C317.326385,128.384918 317.414062,127.768517 317.793121,127.129913 
z"/>
<path fill="#7DCDF2" opacity="1.000000" stroke="none" 
	d="
M371.946289,148.235382 
	C372.376923,148.118042 372.756256,148.236084 373.135590,148.354126 
	C372.890350,148.554474 372.645142,148.754822 372.138611,148.953720 
	C371.877319,148.952255 371.894958,148.470764 371.946289,148.235382 
z"/>
<path fill="#F9FCFE" opacity="1.000000" stroke="none" 
	d="
M261.055817,142.930618 
	C261.034790,137.285782 261.013794,131.640930 261.023071,125.534477 
	C267.300293,117.220886 280.426727,117.881790 285.875549,126.735382 
	C290.866150,134.844315 285.890259,146.610916 276.390198,147.251907 
	C272.336304,147.126389 268.693420,147.008972 264.531860,146.543793 
	C263.027435,145.107559 262.041626,144.019089 261.055817,142.930618 
z"/>
<path fill="#EAF7FD" opacity="1.000000" stroke="none" 
	d="
M413.726990,123.781036 
	C414.072784,131.353806 414.051056,139.032074 413.633057,146.734772 
	C411.599030,143.474762 409.461182,140.337646 408.440033,136.871567 
	C406.881836,131.582489 409.002960,127.190536 413.726990,123.781036 
z"/>
<path fill="#FCFDFE" opacity="1.000000" stroke="none" 
	d="
M198.817657,141.506775 
	C195.682220,143.521378 192.848495,146.342758 189.771500,146.639221 
	C182.413193,147.348206 174.940338,146.868179 167.294525,146.868179 
	C167.294525,139.917953 167.294525,133.330673 167.294525,126.558434 
	C175.154556,126.558434 183.131058,125.767288 190.871536,126.780136 
	C198.669235,127.800476 201.344147,133.589844 198.817657,141.506775 
z"/>
<path fill="#FCFDFE" opacity="1.000000" stroke="none" 
	d="
M167.070984,97.227257 
	C168.039078,95.834007 168.971603,94.174553 169.979263,94.127586 
	C175.294525,93.879890 180.643829,93.792099 185.952728,94.116501 
	C193.245712,94.562126 197.283325,98.657089 197.155975,104.887764 
	C197.038101,110.654465 192.731491,114.678474 185.766708,114.983696 
	C179.790710,115.245583 173.794144,115.037949 167.070099,115.037949 
	C167.070099,109.219490 167.070099,103.462280 167.070984,97.227257 
z"/>
<path fill="#F9FCFD" opacity="1.000000" stroke="none" 
	d="
M110.990051,113.943268 
	C112.173882,117.049088 113.230431,119.787277 114.428452,122.892090 
	C106.601173,122.892090 99.414070,122.892090 91.569626,122.892090 
	C95.425331,113.520576 99.087814,104.618713 103.275337,94.440720 
	C106.158951,101.712952 108.510872,107.644295 110.990051,113.943268 
z"/>
<path fill="#FCFDFE" opacity="1.000000" stroke="none" 
	d="
M599.998962,93.837067 
	C604.781250,93.837036 609.066956,93.837036 613.590332,93.837036 
	C613.590332,111.785034 613.590332,129.194061 613.590332,146.883423 
	C601.776123,146.883423 590.192871,146.883423 578.878052,146.883423 
	C581.551819,129.413239 584.210022,112.044189 586.996521,93.837090 
	C590.650269,93.837090 595.076294,93.837090 599.998962,93.837067 
z"/>
<path fill="#7DCDF2" opacity="1.000000" stroke="none" 
	d="
M479.998199,115.540451 
	C479.313690,114.741119 478.155762,113.490921 478.111053,112.202110 
	C477.913269,106.501213 478.035492,100.789192 478.063110,94.627785 
	C478.747620,95.348595 479.944763,96.505424 479.983673,97.699989 
	C480.172119,103.485039 480.049530,109.280220 479.998199,115.540451 
z"/>
<path fill="#4ABBF1" opacity="1.000000" stroke="none" 
	d="
M260.965881,143.334930 
	C262.041626,144.019089 263.027435,145.107559 264.082031,146.516403 
	C261.453613,147.501785 260.705292,146.106293 260.965881,143.334930 
z"/>
<path fill="#EEF8FC" opacity="1.000000" stroke="none" 
	d="
M427.134338,120.577805 
	C437.867371,122.096016 440.285034,132.875092 436.670837,140.985001 
	C435.829437,142.873047 434.207947,144.413422 432.876709,146.458466 
	C431.031403,146.803162 429.254761,146.803162 427.097534,146.803162 
	C427.097534,138.113190 427.097534,129.576065 427.134338,120.577805 
z"/>
</svg>