<?xml version="1.0" encoding="UTF-8"?>
<svg version="1.1" xmlns="http://www.w3.org/2000/svg" width="300" height="83">
<path d="M0 0 C2.11165317 -0.01202312 4.22049275 -0.06144888 6.33154297 -0.11157227 C7.68699767 -0.12102599 9.04247002 -0.12826605 10.39794922 -0.13305664 C11.61321289 -0.14651123 12.82847656 -0.15996582 14.08056641 -0.17382812 C18.26454435 0.59294299 19.70132536 2.17517852 22.35107422 5.42553711 C23.58154297 8.03100586 23.58154297 8.03100586 24.53857422 10.61303711 C25.99061873 13.74517159 26.62583879 15.1053778 29.81982422 16.51538086 C33.02800994 17.14687719 36.08648624 17.42553711 39.35107422 17.42553711 C39.68107422 16.76553711 40.01107422 16.10553711 40.35107422 15.42553711 C42.33107422 15.42553711 44.31107422 15.42553711 46.35107422 15.42553711 C46.35107422 16.74553711 46.35107422 18.06553711 46.35107422 19.42553711 C47.34107422 18.93053711 47.34107422 18.93053711 48.35107422 18.42553711 C50.72509923 18.35437329 53.10108098 18.34144626 55.47607422 18.36303711 C56.75740234 18.37206055 58.03873047 18.38108398 59.35888672 18.39038086 C60.84001953 18.4077832 60.84001953 18.4077832 62.35107422 18.42553711 C62.35107422 20.07553711 62.35107422 21.72553711 62.35107422 23.42553711 C61.03107422 23.42553711 59.71107422 23.42553711 58.35107422 23.42553711 C58.84607422 31.34553711 58.84607422 31.34553711 59.35107422 39.42553711 C60.22248047 37.90959961 61.09388672 36.39366211 61.99169922 34.83178711 C63.19254653 32.86164699 64.39579908 30.89297152 65.60107422 28.92553711 C66.16826172 27.92393555 66.73544922 26.92233398 67.31982422 25.89038086 C69.15298549 22.96130795 70.72047307 20.67460069 73.35107422 18.42553711 C77.49677762 17.56515642 81.18608226 17.77200163 85.35107422 18.42553711 C85.35107422 20.07553711 85.35107422 21.72553711 85.35107422 23.42553711 C83.37107422 23.92053711 83.37107422 23.92053711 81.35107422 24.42553711 C81.02107422 31.68553711 80.69107422 38.94553711 80.35107422 46.42553711 C82.99107422 46.09553711 85.63107422 45.76553711 88.35107422 45.42553711 C90.18939817 41.3873778 90.86292161 37.62937599 91.41357422 33.23803711 C92.25149498 26.62469559 92.25149498 26.62469559 93.35107422 24.42553711 C91.70107422 24.09553711 90.05107422 23.76553711 88.35107422 23.42553711 C88.35107422 21.77553711 88.35107422 20.12553711 88.35107422 18.42553711 C98.91107422 18.42553711 109.47107422 18.42553711 120.35107422 18.42553711 C120.35107422 20.07553711 120.35107422 21.72553711 120.35107422 23.42553711 C119.03107422 23.42553711 117.71107422 23.42553711 116.35107422 23.42553711 C116.35107422 31.01553711 116.35107422 38.60553711 116.35107422 46.42553711 C118.00107422 46.42553711 119.65107422 46.42553711 121.35107422 46.42553711 C121.35107422 50.38553711 121.35107422 54.34553711 121.35107422 58.42553711 C118.87607422 58.92053711 118.87607422 58.92053711 116.35107422 59.42553711 C116.02107422 59.09553711 115.69107422 58.76553711 115.35107422 58.42553711 C115.35107422 56.77553711 115.35107422 55.12553711 115.35107422 53.42553711 C107.43107422 53.09553711 99.51107422 52.76553711 91.35107422 52.42553711 C91.35107422 54.40553711 91.35107422 56.38553711 91.35107422 58.42553711 C89.69492765 58.80772478 88.02650398 59.13948813 86.35107422 59.42553711 C86.02107422 59.09553711 85.69107422 58.76553711 85.35107422 58.42553711 C85.35107422 56.11553711 85.35107422 53.80553711 85.35107422 51.42553711 C80.07107422 51.42553711 74.79107422 51.42553711 69.35107422 51.42553711 C69.35107422 49.77553711 69.35107422 48.12553711 69.35107422 46.42553711 C70.67107422 46.09553711 71.99107422 45.76553711 73.35107422 45.42553711 C73.35107422 40.14553711 73.35107422 34.86553711 73.35107422 29.42553711 C72.44744141 30.83448242 71.54380859 32.24342773 70.61279297 33.69506836 C69.42158281 35.54285104 68.23016577 37.39050036 67.03857422 39.23803711 C66.1462207 40.63119141 66.1462207 40.63119141 65.23583984 42.05249023 C64.65898437 42.94516602 64.08212891 43.8378418 63.48779297 44.75756836 C62.69441528 45.99083862 62.69441528 45.99083862 61.88500977 47.24902344 C60.48810774 49.23109912 59.21174433 50.87430823 57.35107422 52.42553711 C54.72607422 52.67553711 54.72607422 52.67553711 52.35107422 52.42553711 C51.35107422 51.42553711 51.35107422 51.42553711 51.25341797 49.14038086 C51.28597005 46.56876628 51.31852214 43.99715169 51.35107422 41.42553711 C47.72107422 41.75553711 44.09107422 42.08553711 40.35107422 42.42553711 C39.03107422 45.72553711 37.71107422 49.02553711 36.35107422 52.42553711 C23.85107422 53.94992735 23.85107422 53.94992735 19.35107422 51.42553711 C15.04303504 46.35394621 14.64758257 41.93555513 14.28857422 35.42553711 C13.84214163 27.92987881 13.24210977 21.53637946 7.35107422 16.17553711 C2.84209444 12.57025581 -1.94917693 11.56200997 -7.64892578 11.42553711 C-14.41053359 12.18755958 -18.11927838 15.33374585 -22.33642578 20.48803711 C-25.46709154 25.10949609 -24.94732959 30.54056426 -25.07861328 35.91381836 C-25.32516098 41.7385078 -26.27342752 46.8803604 -30.39892578 51.30053711 C-35.92820388 54.06517616 -42.10583768 53.4640766 -48.08642578 52.98803711 C-48.81796875 52.93583008 -49.54951172 52.88362305 -50.30322266 52.82983398 C-52.08561201 52.70168834 -53.86735148 52.56455551 -55.64892578 52.42553711 C-55.64892578 50.44553711 -55.64892578 48.46553711 -55.64892578 46.42553711 C-53.66892578 46.42553711 -51.68892578 46.42553711 -49.64892578 46.42553711 C-49.97892578 45.10553711 -50.30892578 43.78553711 -50.64892578 42.42553711 C-51.41978516 42.39975586 -52.19064453 42.37397461 -52.98486328 42.34741211 C-54.48919922 42.26233398 -54.48919922 42.26233398 -56.02392578 42.17553711 C-57.02166016 42.12913086 -58.01939453 42.08272461 -59.04736328 42.03491211 C-61.64892578 41.42553711 -61.64892578 41.42553711 -62.81298828 39.69897461 C-63.78125817 37.06564247 -63.79585273 35.23513908 -63.62548828 32.44116211 C-63.57392578 31.5065918 -63.52236328 30.57202148 -63.46923828 29.60913086 C-63.40478516 28.64104492 -63.34033203 27.67295898 -63.27392578 26.67553711 C-63.21720703 25.69198242 -63.16048828 24.70842773 -63.10205078 23.69506836 C-62.96085026 21.27112611 -62.80946783 18.84826252 -62.64892578 16.42553711 C-60.99892578 16.09553711 -59.34892578 15.76553711 -57.64892578 15.42553711 C-57.31892578 16.41553711 -56.98892578 17.40553711 -56.64892578 18.42553711 C-42.62855702 18.29631833 -42.62855702 18.29631833 -31.19189453 11.37084961 C-30.428125 10.40791992 -30.428125 10.40791992 -29.64892578 9.42553711 C-28.52324122 8.13682237 -27.37737018 6.86544481 -26.21142578 5.61303711 C-25.73833984 5.0497168 -25.26525391 4.48639648 -24.77783203 3.90600586 C-17.88659922 -0.88624595 -8.05244245 0.02171233 0 0 Z M99.35107422 23.42553711 C98.84295308 25.94497107 98.34442888 28.46570584 97.85107422 30.98803711 C97.70798828 31.69250977 97.56490234 32.39698242 97.41748047 33.12280273 C97.28212891 33.82211914 97.14677734 34.52143555 97.00732422 35.24194336 C96.88164062 35.87559814 96.75595703 36.50925293 96.62646484 37.16210938 C96.25335747 40.22866828 96.35107422 43.33636366 96.35107422 46.42553711 C100.97107422 46.42553711 105.59107422 46.42553711 110.35107422 46.42553711 C110.35107422 38.83553711 110.35107422 31.24553711 110.35107422 23.42553711 C106.72107422 23.42553711 103.09107422 23.42553711 99.35107422 23.42553711 Z M-43.64892578 37.42553711 C-43.98225911 40.92553711 -43.98225911 40.92553711 -43.64892578 44.42553711 C-42.98892578 45.08553711 -42.32892578 45.74553711 -41.64892578 46.42553711 C-36.61387526 46.18689269 -36.61387526 46.18689269 -32.64892578 43.42553711 C-32.28868957 40.61569463 -32.26559976 39.04311792 -33.77392578 36.61303711 C-37.3212439 34.3664023 -40.70499728 34.48160861 -43.64892578 37.42553711 Z M29.35107422 36.42553711 C29.35107422 39.72553711 29.35107422 43.02553711 29.35107422 46.42553711 C30.34107422 46.09553711 31.33107422 45.76553711 32.35107422 45.42553711 C32.68107422 43.11553711 33.01107422 40.80553711 33.35107422 38.42553711 C32.03107422 37.76553711 30.71107422 37.10553711 29.35107422 36.42553711 Z M22.35107422 37.42553711 C21.05473801 38.49198826 21.05473801 38.49198826 21.28857422 40.98803711 C21.30919922 41.79241211 21.32982422 42.59678711 21.35107422 43.42553711 C22.34107422 43.92053711 22.34107422 43.92053711 23.35107422 44.42553711 C23.35107422 42.11553711 23.35107422 39.80553711 23.35107422 37.42553711 C23.02107422 37.42553711 22.69107422 37.42553711 22.35107422 37.42553711 Z " fill="#4DB8EA" transform="translate(157.64892578125,17.574462890625)"/>
<path d="M0 0 C4.62 0 9.24 0 14 0 C18.75946149 10.21884378 18.75946149 10.21884378 20.421875 15 C20.66405762 15.67345459 20.90624023 16.34690918 21.15576172 17.04077148 C21.62805215 18.36834687 22.07843097 19.70396252 22.50439453 21.04711914 C23.21572203 23.18751376 23.21572203 23.18751376 25 26 C27.31 26.66 29.62 27.32 32 28 C32 20.74 32 13.48 32 6 C30.68 6 29.36 6 28 6 C28 4.02 28 2.04 28 0 C31.72901814 -0.08736736 35.45777165 -0.14051482 39.1875 -0.1875 C40.24259766 -0.21263672 41.29769531 -0.23777344 42.38476562 -0.26367188 C43.91713867 -0.27817383 43.91713867 -0.27817383 45.48046875 -0.29296875 C46.41785889 -0.3086792 47.35524902 -0.32438965 48.32104492 -0.34057617 C51.53256353 0.06770492 53.39378631 1.11169302 56 3 C57.53214888 6.06429776 57.22938548 8.6165642 57 12 C55.5 14.9375 55.5 14.9375 54 17 C54.639375 17.37125 55.27875 17.7425 55.9375 18.125 C58 20 58 20 58.9375 22.875 C59.01212155 26.60607772 58.26919973 28.08245749 56 31 C52.0944753 33.60368313 48.71336111 33.35148497 44.17578125 33.4140625 C43.31438034 33.43342865 42.45297943 33.4527948 41.56547546 33.4727478 C38.81458432 33.5325203 36.06365127 33.57891948 33.3125 33.625 C31.44724739 33.66318194 29.58201237 33.7022338 27.71679688 33.7421875 C23.14467414 33.8382199 18.57246886 33.9222595 14 34 C14 32.02 14 30.04 14 28 C15.32 28 16.64 28 18 28 C17.48808788 25.92934145 17.48808788 25.92934145 16 24 C12.89069059 23.29327794 12.89069059 23.29327794 9.375 23.25 C8.18648437 23.19328125 6.99796875 23.1365625 5.7734375 23.078125 C4.40058594 23.03945313 4.40058594 23.03945313 3 23 C2.67 24.65 2.34 26.3 2 28 C3.65 28 5.3 28 7 28 C7.042721 29.66611905 7.04063832 31.33382885 7 33 C6 34 6 34 2.875 34.1328125 C1.59625 34.13023438 0.3175 34.12765625 -1 34.125 C-2.27875 34.12757812 -3.5575 34.13015625 -4.875 34.1328125 C-8 34 -8 34 -9 33 C-9.04063832 31.33382885 -9.042721 29.66611905 -9 28 C-7.35 27.67 -5.7 27.34 -4 27 C-3.608125 25.7625 -3.21625 24.525 -2.8125 23.25 C-0.86118823 17.36792078 1.56246179 11.69401218 4 6 C2.68 5.67 1.36 5.34 0 5 C0 3.35 0 1.7 0 0 Z M38 6 C37.92851801 7.35243917 37.91600546 8.70834367 37.9375 10.0625 C37.958125 11.361875 37.97875 12.66125 38 14 C39.60379341 14.05416188 41.20811406 14.09286638 42.8125 14.125 C43.70582031 14.14820313 44.59914063 14.17140625 45.51953125 14.1953125 C48.25402714 14.18285827 48.25402714 14.18285827 51 12 C50.81171228 9.55519921 50.81171228 9.55519921 50 7 C47.17415874 4.71758975 40.80877847 3.19122153 38 6 Z M10 7 C9.32845067 8.28913487 8.66291141 9.58140204 8 10.875 C7.62875 11.59429687 7.2575 12.31359375 6.875 13.0546875 C5.86326254 14.94848977 5.86326254 14.94848977 6 17 C8.64 17 11.28 17 14 17 C13.39009109 13.44219804 12.4216319 10.3171411 11 7 C10.67 7 10.34 7 10 7 Z M38 20 C38 22.64 38 25.28 38 28 C39.58294782 28.05437607 41.16644256 28.09296271 42.75 28.125 C43.63171875 28.14820313 44.5134375 28.17140625 45.421875 28.1953125 C48.1135858 27.99139502 49.69904974 27.36551721 52 26 C51.89386164 23.54775306 51.89386164 23.54775306 51 21 C46.62352035 18.44705354 42.72028371 18.4265721 38 20 Z " fill="#1475AA" transform="translate(35,36)"/>
<path d="M0 0 C1.84392894 0.16737114 3.6864964 0.36923854 5.515625 0.65625 C5.515625 2.30625 5.515625 3.95625 5.515625 5.65625 C4.195625 5.98625 2.875625 6.31625 1.515625 6.65625 C1.185625 13.91625 0.855625 21.17625 0.515625 28.65625 C4.475625 28.16125 4.475625 28.16125 8.515625 27.65625 C10.35394895 23.61809069 11.02747239 19.86008888 11.578125 15.46875 C12.41604576 8.85540849 12.41604576 8.85540849 13.515625 6.65625 C11.040625 6.16125 11.040625 6.16125 8.515625 5.65625 C8.515625 4.00625 8.515625 2.35625 8.515625 0.65625 C19.075625 0.65625 29.635625 0.65625 40.515625 0.65625 C40.515625 2.30625 40.515625 3.95625 40.515625 5.65625 C39.195625 5.65625 37.875625 5.65625 36.515625 5.65625 C36.515625 13.24625 36.515625 20.83625 36.515625 28.65625 C38.165625 28.65625 39.815625 28.65625 41.515625 28.65625 C41.515625 32.61625 41.515625 36.57625 41.515625 40.65625 C39.865625 40.98625 38.215625 41.31625 36.515625 41.65625 C36.185625 41.32625 35.855625 40.99625 35.515625 40.65625 C35.515625 39.00625 35.515625 37.35625 35.515625 35.65625 C27.595625 35.32625 19.675625 34.99625 11.515625 34.65625 C11.515625 36.63625 11.515625 38.61625 11.515625 40.65625 C9.85947843 41.03843767 8.19105476 41.37020102 6.515625 41.65625 C6.185625 41.32625 5.855625 40.99625 5.515625 40.65625 C5.515625 38.34625 5.515625 36.03625 5.515625 33.65625 C0.235625 33.65625 -5.044375 33.65625 -10.484375 33.65625 C-10.484375 32.00625 -10.484375 30.35625 -10.484375 28.65625 C-9.164375 28.32625 -7.844375 27.99625 -6.484375 27.65625 C-6.484375 22.37625 -6.484375 17.09625 -6.484375 11.65625 C-7.38800781 13.06519531 -8.29164063 14.47414063 -9.22265625 15.92578125 C-10.4138664 17.77356393 -11.60528344 19.62121325 -12.796875 21.46875 C-13.39177734 22.39751953 -13.98667969 23.32628906 -14.59960938 24.28320312 C-15.17646484 25.17587891 -15.75332031 26.06855469 -16.34765625 26.98828125 C-17.14103394 28.22155151 -17.14103394 28.22155151 -17.95043945 29.47973633 C-19.34734147 31.46181201 -20.62370489 33.10502112 -22.484375 34.65625 C-25.109375 34.90625 -25.109375 34.90625 -27.484375 34.65625 C-28.484375 33.65625 -28.484375 33.65625 -28.58203125 31.37109375 C-28.57042969 30.45457031 -28.55882812 29.53804687 -28.546875 28.59375 C-28.53785156 27.67464844 -28.52882812 26.75554688 -28.51953125 25.80859375 C-28.50792969 25.09832031 -28.49632812 24.38804688 -28.484375 23.65625 C-27.824375 23.65625 -27.164375 23.65625 -26.484375 23.65625 C-26.154375 26.62625 -25.824375 29.59625 -25.484375 32.65625 C-24.824375 32.65625 -24.164375 32.65625 -23.484375 32.65625 C-22.46543424 26.80736957 -22.36639047 21.14705831 -22.421875 15.21875 C-22.42638672 14.29642578 -22.43089844 13.37410156 -22.43554688 12.42382812 C-22.44723562 10.16789952 -22.46362045 7.91211033 -22.484375 5.65625 C-22.154375 5.65625 -21.824375 5.65625 -21.484375 5.65625 C-21.154375 10.93625 -20.824375 16.21625 -20.484375 21.65625 C-19.61296875 20.1403125 -18.7415625 18.624375 -17.84375 17.0625 C-16.64290269 15.09235989 -15.43965014 13.12368441 -14.234375 11.15625 C-13.6671875 10.15464844 -13.1 9.15304688 -12.515625 8.12109375 C-8.96473826 2.44739429 -6.939488 0 0 0 Z M19.515625 5.65625 C19.00750386 8.17568396 18.50897966 10.69641873 18.015625 13.21875 C17.87253906 13.92322266 17.72945312 14.62769531 17.58203125 15.35351562 C17.44667969 16.05283203 17.31132812 16.75214844 17.171875 17.47265625 C17.04619141 18.10631104 16.92050781 18.73996582 16.79101562 19.39282227 C16.41790825 22.45938117 16.515625 25.56707655 16.515625 28.65625 C21.135625 28.65625 25.755625 28.65625 30.515625 28.65625 C30.515625 21.06625 30.515625 13.47625 30.515625 5.65625 C26.885625 5.65625 23.255625 5.65625 19.515625 5.65625 Z " fill="#1075AB" transform="translate(237.484375,35.34375)"/>
<path d="M0 0 C1.98 0 3.96 0 6 0 C6 1.32 6 2.64 6 4 C6.66 3.67 7.32 3.34 8 3 C10.37402501 2.92883618 12.75000677 2.91590915 15.125 2.9375 C16.40632813 2.94652344 17.68765625 2.95554688 19.0078125 2.96484375 C20.48894531 2.98224609 20.48894531 2.98224609 22 3 C22 4.65 22 6.3 22 8 C20.35 8 18.7 8 17 8 C17.0407666 8.70608398 17.0815332 9.41216797 17.12353516 10.13964844 C17.30206109 13.34258269 17.46370796 16.54615361 17.625 19.75 C17.68945312 20.86117187 17.75390625 21.97234375 17.8203125 23.1171875 C17.871875 24.18710937 17.9234375 25.25703125 17.9765625 26.359375 C18.02893066 27.34389648 18.08129883 28.32841797 18.13525391 29.34277344 C17.99441807 32.1096638 17.42542979 33.65509503 16 36 C15.01 35.67 14.02 35.34 13 35 C13 32.03 13 29.06 13 26 C6.565 26.495 6.565 26.495 0 27 C-1.32 30.3 -2.64 33.6 -4 37 C-15.71428571 38.42857143 -15.71428571 38.42857143 -21 36 C-21 31.52784881 -20.5017305 31.3145657 -18 28 C-17.41596768 25.69656168 -17.41596768 25.69656168 -17.26953125 23.234375 C-17.18896484 22.34492187 -17.10839844 21.45546875 -17.02539062 20.5390625 C-16.95513672 19.61867188 -16.88488281 18.69828125 -16.8125 17.75 C-16.73064453 16.81414063 -16.64878906 15.87828125 -16.56445312 14.9140625 C-16.36461995 12.61010353 -16.1769061 10.30581384 -16 8 C-17.65 8 -19.3 8 -21 8 C-20.67 6.35 -20.34 4.7 -20 3 C-17.20837429 2.83262201 -14.41670379 2.66606598 -11.625 2.5 C-10.8309375 2.45230469 -10.036875 2.40460937 -9.21875 2.35546875 C-3.2265625 2 -3.2265625 2 -1 2 C-0.67 1.34 -0.34 0.68 0 0 Z M-11 21 C-11 24.3 -11 27.6 -11 31 C-10.01 30.67 -9.02 30.34 -8 30 C-7.67 27.69 -7.34 25.38 -7 23 C-8.32 22.34 -9.64 21.68 -11 21 Z " fill="#0B78B1" transform="translate(198,33)"/>
<path d="M0 0 C0.33 0.66 0.66 1.32 1 2 C1.99 2 2.98 2 4 2 C4 6.62 4 11.24 4 16 C2.35 16 0.7 16 -1 16 C-1 13.69 -1 11.38 -1 9 C-3.64 9 -6.28 9 -9 9 C-8.67 15.93 -8.34 22.86 -8 30 C-6.02 30.66 -4.04 31.32 -2 32 C-2 33.65 -2 35.3 -2 37 C-5.76300374 38.25433458 -9.27210909 38.10695422 -13.1875 38.0625 C-13.93708984 38.05798828 -14.68667969 38.05347656 -15.45898438 38.04882812 C-17.30602383 38.03706354 -19.15302213 38.01912865 -21 38 C-21 36.02 -21 34.04 -21 32 C-19.02 32 -17.04 32 -15 32 C-15.33 30.68 -15.66 29.36 -16 28 C-17.15628906 27.96132813 -17.15628906 27.96132813 -18.3359375 27.921875 C-19.33882812 27.86515625 -20.34171875 27.8084375 -21.375 27.75 C-22.87160156 27.68039063 -22.87160156 27.68039063 -24.3984375 27.609375 C-27 27 -27 27 -28.1640625 25.2734375 C-29.13233239 22.64010536 -29.14692695 20.80960197 -28.9765625 18.015625 C-28.925 17.08105469 -28.8734375 16.14648438 -28.8203125 15.18359375 C-28.75585938 14.21550781 -28.69140625 13.24742188 -28.625 12.25 C-28.56828125 11.26644531 -28.5115625 10.28289063 -28.453125 9.26953125 C-28.31192448 6.845589 -28.16054205 4.42272541 -28 2 C-26.35 1.67 -24.7 1.34 -23 1 C-22.67 1.99 -22.34 2.98 -22 4 C-18.89444745 3.72202422 -15.79097058 3.42526358 -12.6875 3.125 C-11.80642578 3.04636719 -10.92535156 2.96773437 -10.01757812 2.88671875 C-8.74624023 2.76103516 -8.74624023 2.76103516 -7.44921875 2.6328125 C-6.27879028 2.52283936 -6.27879028 2.52283936 -5.0847168 2.41064453 C-2.70505767 2.08029789 -2.70505767 2.08029789 0 0 Z " fill="#0978B2" transform="translate(123,32)"/>
<path d="M0 0 C0.99 0.33 1.98 0.66 3 1 C3 1.66 3 2.32 3 3 C4.32 3 5.64 3 7 3 C7 8.94 7 14.88 7 21 C3.04 21.33 -0.92 21.66 -5 22 C-5.99 24.475 -5.99 24.475 -7 27 C-8.98 27 -10.96 27 -13 27 C-12.95359375 26.38511719 -12.9071875 25.77023438 -12.859375 25.13671875 C-12.82328125 24.32847656 -12.7871875 23.52023438 -12.75 22.6875 C-12.68039063 21.48673828 -12.68039063 21.48673828 -12.609375 20.26171875 C-12.73828125 19.51535156 -12.8671875 18.76898438 -13 18 C-13.99 17.30390625 -13.99 17.30390625 -15 16.59375 C-17 15 -17 15 -17.390625 12.08203125 C-17.26041667 9.0546875 -17.13020833 6.02734375 -17 3 C-13.04 3 -9.08 3 -5 3 C-5 5.31 -5 7.62 -5 10 C-3.35 10 -1.7 10 0 10 C0 6.7 0 3.4 0 0 Z " fill="#46BAF0" transform="translate(203,38)"/>
<path d="M0 0 C1.58723877 0.02187378 1.58723877 0.02187378 3.20654297 0.04418945 C4.37443359 0.05256836 5.54232422 0.06094727 6.74560547 0.06958008 C7.96763672 0.09858398 9.18966797 0.12758789 10.44873047 0.1574707 C11.64755859 0.16713867 12.84638672 0.17680664 14.08154297 0.18676758 C20.56283789 0.26849443 26.89826754 0.62015141 33.32373047 1.4699707 C33.32373047 2.1299707 33.32373047 2.7899707 33.32373047 3.4699707 C29.85873047 5.4499707 29.85873047 5.4499707 26.32373047 7.4699707 C26.32373047 8.4599707 26.32373047 9.4499707 26.32373047 10.4699707 C25.23060547 10.3049707 24.13748047 10.1399707 23.01123047 9.9699707 C15.36498847 9.0243224 7.89195895 9.32885769 0.27294922 10.3137207 C-2.18438188 10.51070115 -4.31604825 10.15519624 -6.67626953 9.4699707 C-6.02226478 4.7611365 -5.13530155 0.90179306 0 0 Z " fill="#49BAF0" transform="translate(139.67626953125,18.530029296875)"/>
<path d="M0 0 C1.65 0 3.3 0 5 0 C5 8.91 5 17.82 5 27 C6.32 27 7.64 27 9 27 C9 30.3 9 33.6 9 37 C8.34 37 7.68 37 7 37 C7 36.01 7 35.02 7 34 C6.34 33.67 5.68 33.34 5 33 C5 32.67 5 32.34 5 32 C-2.92 31.67 -10.84 31.34 -19 31 C-18.67 29.02 -18.34 27.04 -18 25 C-18.99 24.67 -19.98 24.34 -21 24 C-19.02 23.67 -17.04 23.34 -15 23 C-15 23.99 -15 24.98 -15 26 C-10.05 26 -5.1 26 0 26 C0 17.42 0 8.84 0 0 Z " fill="#1177B1" transform="translate(268,38)"/>
<path d="M0 0 C4.48341837 -0.36352041 4.48341837 -0.36352041 6.6875 1.1875 C8.50789845 3.70138358 8.1196668 5.1623324 7.6875 8.1875 C7.50767578 9.53908203 7.50767578 9.53908203 7.32421875 10.91796875 C7.21722656 11.60503906 7.11023438 12.29210938 7 13 C7.77085938 13.03738281 8.54171875 13.07476562 9.3359375 13.11328125 C10.33882812 13.17902344 11.34171875 13.24476562 12.375 13.3125 C13.87160156 13.39951172 13.87160156 13.39951172 15.3984375 13.48828125 C16.68621094 13.74158203 16.68621094 13.74158203 18 14 C18.99 15.485 18.99 15.485 20 17 C16.17010894 18.80230168 13.21878192 19.19622241 9 19 C9 21.64 9 24.28 9 27 C10.08667969 26.87431641 10.08667969 26.87431641 11.1953125 26.74609375 C16.3349182 26.20472195 20.91365942 25.76278202 26 27 C26 27.66 26 28.32 26 29 C23.23382437 30.38308781 20.98982 30.11210196 17.8984375 30.09765625 C16.68671875 30.09443359 15.475 30.09121094 14.2265625 30.08789062 C12.95554687 30.07951172 11.68453125 30.07113281 10.375 30.0625 C9.09625 30.05798828 7.8175 30.05347656 6.5 30.04882812 C3.33328708 30.03701203 0.16666644 30.02053815 -3 30 C-2.67 29.34 -2.34 28.68 -2 28 C-0.02 28 1.96 28 4 28 C4 20.41 4 12.82 4 5 C2.68 4.67 1.36 4.34 0 4 C0 2.68 0 1.36 0 0 Z " fill="#0A74B2" transform="translate(64,37)"/>
<path d="M0 0 C2.97 0 5.94 0 9 0 C9 7.59 9 15.18 9 23 C8.34 21.68 7.68 20.36 7 19 C4.41122736 18.4456648 4.41122736 18.4456648 1.5 18.5 C-1.46875 18.46875 -1.46875 18.46875 -4 18 C-6.1927375 15.11811643 -5.99665114 13.96651136 -5.625 10.25 C-5.41875 9.1775 -5.2125 8.105 -5 7 C-3.35 7 -1.7 7 0 7 C0 4.69 0 2.38 0 0 Z " fill="#49B4E7" transform="translate(100,41)"/>
<path d="M0 0 C0.33 1.65 0.66 3.3 1 5 C8.26 5.33 15.52 5.66 23 6 C23 6.33 23 6.66 23 7 C15.08 7 7.16 7 -1 7 C-1 8.98 -1 10.96 -1 13 C-2.65614657 13.38218767 -4.32457024 13.71395102 -6 14 C-6.33 13.67 -6.66 13.34 -7 13 C-7 10.69 -7 8.38 -7 6 C-12.28 6 -17.56 6 -23 6 C-23 4.35 -23 2.7 -23 1 C-21.68 1.33 -20.36 1.66 -19 2 C-19.66 2 -20.32 2 -21 2 C-21 2.66 -21 3.32 -21 4 C-16.71 4 -12.42 4 -8 4 C-8 3.34 -8 2.68 -8 2 C-9.32 1.67 -10.64 1.34 -12 1 C-7.915021 0.45533613 -4.1274515 0 0 0 Z " fill="#1173A9" transform="translate(250,63)"/>
<path d="M0 0 C1.61416697 3.22833393 0.9463882 6.66739037 0.75 10.1875 C0.72292969 10.93064453 0.69585937 11.67378906 0.66796875 12.43945312 C0.35257272 18.24375755 -0.64430727 23.47604351 -4.75 27.875 C-7.77645399 29.38822699 -10.65498963 29.67836439 -14 30 C-14 29.34 -14 28.68 -14 28 C-13.01 28 -12.02 28 -11 28 C-11.061875 27.05125 -11.12375 26.1025 -11.1875 25.125 C-11.125625 24.09375 -11.06375 23.0625 -11 22 C-10.01 21.34 -9.02 20.68 -8 20 C-7.58333333 17.5 -7.58333333 17.5 -8 15 C-10.5654594 12.4345406 -12.47686668 12.45953913 -16 12 C-16 11.34 -16 10.68 -16 10 C-12.625 9.8125 -12.625 9.8125 -9 10 C-8.01 11.485 -8.01 11.485 -7 13 C-6.34 12.67 -5.68 12.34 -5 12 C-5 12.66 -5 13.32 -5 14 C-4.01 13.34 -3.02 12.68 -2 12 C-1.45368617 9.37654883 -1.45368617 9.37654883 -1.375 6.4375 C-1.08253095 1.08253095 -1.08253095 1.08253095 0 0 Z " fill="#56B0DC" transform="translate(132,41)"/>
<path d="M0 0 C0.33 0 0.66 0 1 0 C1 7.59 1 15.18 1 23 C-0.98 23.33 -2.96 23.66 -5 24 C7.87 24.495 7.87 24.495 21 25 C21 25.66 21 26.32 21 27 C8.13 27.33 -4.74 27.66 -18 28 C-18 26.02 -18 24.04 -18 22 C-16.68 22 -15.36 22 -14 22 C-14.33 20.68 -14.66 19.36 -15 18 C-14.01 18.66 -13.02 19.32 -12 20 C-12.33 20.99 -12.66 21.98 -13 23 C-14.32 23 -15.64 23 -17 23 C-17 23.66 -17 24.32 -17 25 C-14.03 25 -11.06 25 -8 25 C-8.33 22.69 -8.66 20.38 -9 18 C-8.62875 18.474375 -8.2575 18.94875 -7.875 19.4375 C-5.62243117 21.5821401 -5.62243117 21.5821401 0 22 C0 14.74 0 7.48 0 0 Z " fill="#1E739F" transform="translate(67,42)"/>
<path d="M0 0 C1.67542976 0.28604898 3.34385343 0.61781233 5 1 C5 1.66 5 2.32 5 3 C11.27 2.67 17.54 2.34 24 2 C24 2.66 24 3.32 24 4 C22.41058594 4.05607422 22.41058594 4.05607422 20.7890625 4.11328125 C19.40100576 4.17893258 18.01298651 4.24538021 16.625 4.3125 C15.92632812 4.33505859 15.22765625 4.35761719 14.5078125 4.38085938 C12.22711059 4.46984296 12.22711059 4.46984296 9 5 C8.01 6.485 8.01 6.485 7 8 C6.01 8 5.02 8 4 8 C4 10.31 4 12.62 4 15 C2.35 15 0.7 15 -1 15 C-1.02685412 12.68756208 -1.04632841 10.3750373 -1.0625 8.0625 C-1.07410156 6.77472656 -1.08570312 5.48695312 -1.09765625 4.16015625 C-1 1 -1 1 0 0 Z " fill="#0977B2" transform="translate(96,33)"/>
<path d="M0 0 C2.87874331 4.31811496 2.53778541 8.34777275 2.75 13.4375 C2.80542969 14.39205078 2.86085937 15.34660156 2.91796875 16.33007812 C2.96050781 17.25111328 3.00304687 18.17214844 3.046875 19.12109375 C3.08651367 19.9608374 3.12615234 20.80058105 3.16699219 21.66577148 C2.98337836 24.23233845 2.29468187 25.79897742 1 28 C0.01 27.67 -0.98 27.34 -2 27 C-3.06059488 19.31068715 -3.09928082 11.75493514 -3 4 C-2.34 4 -1.68 4 -1 4 C-0.67 2.68 -0.34 1.36 0 0 Z " fill="#0376B4" transform="translate(213,41)"/>
<path d="M0 0 C1.375 2.625 1.375 2.625 2 5 C-1 3.5 -1 3.5 -4 2 C-7.40814662 1.52346268 -10.59768384 1.45520212 -14 2 C-17.29031752 4.53570472 -17.29031752 4.53570472 -19 8 C-19.16364685 10.24070296 -19.05877829 12.3686119 -18.91015625 14.609375 C-19.06843386 18.82093564 -21.05668687 22.33026137 -23 26 C-23.66 26 -24.32 26 -25 26 C-24.7834375 24.9790625 -24.7834375 24.9790625 -24.5625 23.9375 C-23.80561514 19.98487908 -23.10891371 16.00712399 -22.890625 11.984375 C-22.50895952 6.42902188 -20.99818955 3.9052084 -17 0 C-12.04681005 -3.63233929 -5.24209835 -2.56009455 0 0 Z " fill="#61AAC9" transform="translate(161,37)"/>
<path d="M0 0 C10.56 0 21.12 0 32 0 C32 1.65 32 3.3 32 5 C30.68 5 29.36 5 28 5 C28 12.59 28 20.18 28 28 C29.65 28 31.3 28 33 28 C33 31.96 33 35.92 33 40 C30.525 40.495 30.525 40.495 28 41 C27.505 38.525 27.505 38.525 27 36 C27.66 36 28.32 36 29 36 C29 36.99 29 37.98 29 39 C29.66 39 30.32 39 31 39 C31 35.7 31 32.4 31 29 C29.68 29 28.36 29 27 29 C27 20.75 27 12.5 27 4 C28.32 4 29.64 4 31 4 C31 3.01 31 2.02 31 1 C21.1 1 11.2 1 1 1 C1 1.66 1 2.32 1 3 C2.32 3.66 3.64 4.32 5 5 C4.01 5.495 4.01 5.495 3 6 C2.01 5.67 1.02 5.34 0 5 C0 3.35 0 1.7 0 0 Z " fill="#25749F" transform="translate(246,36)"/>
<path d="M0 0 C6.23142014 1.48828093 10.99692951 2.66257267 15 8 C18.0934408 14.29736164 19.21034528 18.71883081 18.6875 25.6875 C18.56955078 27.42580078 18.56955078 27.42580078 18.44921875 29.19921875 C18.30097656 30.12347656 18.15273437 31.04773438 18 32 C17.01 32.495 17.01 32.495 16 33 C15.97421875 31.9378125 15.9484375 30.875625 15.921875 29.78125 C15.52617571 17.06624015 15.52617571 17.06624015 8.625 6.625 C5.8171703 4.88681971 3.17360513 3.88565725 0 3 C0 2.01 0 1.02 0 0 Z " fill="#54A5C2" transform="translate(152,30)"/>
<path d="M0 0 C0.02708567 1.60407328 0.04643483 3.2082785 0.0625 4.8125 C0.07410156 5.70582031 0.08570313 6.59914063 0.09765625 7.51953125 C0 10 0 10 -1 13 C-1.99 13.33 -2.98 13.66 -4 14 C-4.33 15.98 -4.66 17.96 -5 20 C-5.66 20 -6.32 20 -7 20 C-7.97195772 16.87687114 -7.96894979 14.5365298 -7.5 11.3125 C-7.29370412 9.88015017 -7.11702959 8.44238972 -7 7 C-7.33 6.67 -7.66 6.34 -8 6 C-8 4.68 -8 3.36 -8 2 C-4.77208445 -0.1519437 -3.71599191 -0.20086443 0 0 Z " fill="#4AB8EF" transform="translate(182,41)"/>
<path d="M0 0 C0.66 0 1.32 0 2 0 C2 2.97 2 5.94 2 9 C4.64 8.67 7.28 8.34 10 8 C10.59732819 5.23735711 11 2.83967231 11 0 C13.0245738 1.93254772 14.42105792 3.63158688 16 6 C15.625 8.6875 15.625 8.6875 15 11 C11.39006828 12.13480527 8.0157673 12.10015767 4.25 12.0625 C3.07953125 12.05347656 1.9090625 12.04445313 0.703125 12.03515625 C-0.18890625 12.02355469 -1.0809375 12.01195312 -2 12 C-2.76286236 8.59254812 -3.11667279 6.35001838 -2 3 C-1.34 3 -0.68 3 0 3 C0 2.01 0 1.02 0 0 Z " fill="#0877B4" transform="translate(39,46)"/>
<path d="M0 0 C0.33 0.99 0.66 1.98 1 3 C1.97582031 3.06058594 2.95164063 3.12117188 3.95703125 3.18359375 C5.86548828 3.30927734 5.86548828 3.30927734 7.8125 3.4375 C9.07707031 3.51871094 10.34164063 3.59992188 11.64453125 3.68359375 C15 4 15 4 18 5 C18 5.99 18 6.98 18 8 C10.74 8 3.48 8 -4 8 C-3.67 6.02 -3.34 4.04 -3 2 C-3.99 1.67 -4.98 1.34 -6 1 C-3 0 -3 0 0 0 Z " fill="#0574B7" transform="translate(253,61)"/>
<path d="M0 0 C0.66 0 1.32 0 2 0 C4.12508244 3.18762365 4.5020163 5.26512223 5 9 C5.99 9 6.98 9 8 9 C7.855625 9.804375 7.71125 10.60875 7.5625 11.4375 C6.90311661 15.61359481 6.43908647 19.79598059 6 24 C6.66 24 7.32 24 8 24 C8 22.02 8 20.04 8 18 C9.32 17.67 10.64 17.34 12 17 C11.67 17.66 11.34 18.32 11 19 C10.9310528 20.37342831 10.91532292 21.75002102 10.9375 23.125 C10.958125 24.40375 10.97875 25.6825 11 27 C9.35 27.66 7.7 28.32 6 29 C3.98159454 25.97239181 3.70489023 25.00304104 3.4375 21.54296875 C3.36273438 20.67736328 3.28796875 19.81175781 3.2109375 18.91992188 C3.14132813 18.01822266 3.07171875 17.11652344 3 16.1875 C2.55565482 10.50564178 2.12449166 5.3554894 0 0 Z " fill="#51AEDC" transform="translate(169,37)"/>
<path d="M0 0 C2.40082928 1.32677408 3.67264884 2.07785393 4.59765625 4.68359375 C5.12712125 7.73187284 5.09342081 10.65791891 5.0625 13.75 C5.05347656 14.92046875 5.04445312 16.0909375 5.03515625 17.296875 C5.02355469 18.18890625 5.01195312 19.0809375 5 20 C4.01 20 3.02 20 2 20 C1.96261719 19.02417969 1.92523438 18.04835938 1.88671875 17.04296875 C1.82097656 15.77066406 1.75523437 14.49835937 1.6875 13.1875 C1.60048828 11.29064453 1.60048828 11.29064453 1.51171875 9.35546875 C1.25293425 6.09749185 1.25293425 6.09749185 -0.25 4.09375 C-2.45078221 2.71826112 -4.10774215 2.49943897 -6.6875 2.3125 C-7.89986328 2.21388672 -7.89986328 2.21388672 -9.13671875 2.11328125 C-9.75160156 2.07589844 -10.36648437 2.03851563 -11 2 C-7.37649774 -1.62350226 -4.81165191 -1.20291298 0 0 Z " fill="#5FACCD" transform="translate(157,40)"/>
<path d="M0 0 C0.33 0 0.66 0 1 0 C1.0825 0.78375 1.165 1.5675 1.25 2.375 C1.72806339 5.14749104 1.72806339 5.14749104 4.0625 6.3125 C4.701875 6.539375 5.34125 6.76625 6 7 C6 7.66 6 8.32 6 9 C4.68 8.67 3.36 8.34 2 8 C2.7425 8.928125 2.7425 8.928125 3.5 9.875 C5 12 5 12 5 14 C5.66 14 6.32 14 7 14 C7.268125 14.639375 7.53625 15.27875 7.8125 15.9375 C8.88667752 18.33131686 8.88667752 18.33131686 12 19 C11.01 21.475 11.01 21.475 10 24 C8.02 24 6.04 24 4 24 C4.04640625 23.38511719 4.0928125 22.77023438 4.140625 22.13671875 C4.17671875 21.32847656 4.2128125 20.52023438 4.25 19.6875 C4.31960937 18.48673828 4.31960937 18.48673828 4.390625 17.26171875 C4.26171875 16.51535156 4.1328125 15.76898438 4 15 C3.34 14.5359375 2.68 14.071875 2 13.59375 C0 12 0 12 -0.390625 9.08203125 C-0.34421875 8.00308594 -0.2978125 6.92414062 -0.25 5.8125 C-0.21390625 4.72582031 -0.1778125 3.63914063 -0.140625 2.51953125 C-0.09421875 1.68808594 -0.0478125 0.85664062 0 0 Z " fill="#46AEE0" transform="translate(186,41)"/>
<path d="M0 0 C0.33 0 0.66 0 1 0 C1 5.94 1 11.88 1 18 C2.98 18.33 4.96 18.66 7 19 C2.43389423 27.34495192 2.43389423 27.34495192 0 29 C-2.625 29.25 -2.625 29.25 -5 29 C-6 28 -6 28 -6.09765625 25.71484375 C-6.08605469 24.79832031 -6.07445312 23.88179687 -6.0625 22.9375 C-6.05347656 22.01839844 -6.04445312 21.09929688 -6.03515625 20.15234375 C-6.02355469 19.44207031 -6.01195312 18.73179688 -6 18 C-5.34 18 -4.68 18 -4 18 C-3.67 20.97 -3.34 23.94 -3 27 C-2.34 27 -1.68 27 -1 27 C0.01894076 21.15111957 0.11798453 15.49080831 0.0625 9.5625 C0.05798828 8.64017578 0.05347656 7.71785156 0.04882812 6.76757812 C0.03713938 4.51164952 0.02075455 2.25586033 0 0 Z " fill="#1675A6" transform="translate(215,41)"/>
<path d="M0 0 C1.98 0 3.96 0 6 0 C6 0.99 6 1.98 6 3 C5.01 3 4.02 3 3 3 C2.731875 3.928125 2.46375 4.85625 2.1875 5.8125 C1.08851629 8.76240366 0.37581439 10.05615186 -2 12 C-2.33 10.35 -2.66 8.7 -3 7 C-4.98491642 7.26676204 -4.98491642 7.26676204 -7 8 C-7.33 8.99 -7.66 9.98 -8 11 C-8.99 11 -9.98 11 -11 11 C-9.6875 8.5 -9.6875 8.5 -8 6 C-7.01 6 -6.02 6 -5 6 C-5 5.34 -5 4.68 -5 4 C-3.35 3.67 -1.7 3.34 0 3 C0 2.01 0 1.02 0 0 Z " fill="#0573B4" transform="translate(236,37)"/>
<path d="M0 0 C3.72901814 -0.08736736 7.45777165 -0.14051482 11.1875 -0.1875 C12.24259766 -0.21263672 13.29769531 -0.23777344 14.38476562 -0.26367188 C15.91713867 -0.27817383 15.91713867 -0.27817383 17.48046875 -0.29296875 C18.41785889 -0.3086792 19.35524902 -0.32438965 20.32104492 -0.34057617 C23.53256353 0.06770492 25.39378631 1.11169302 28 3 C29.52491998 6.04983996 29.23562548 8.6423369 29 12 C27.5 13.9375 27.5 13.9375 26 15 C26 13.68 26 12.36 26 11 C25.34 11 24.68 11 24 11 C24 10.01 24 9.02 24 8 C24.66 8 25.32 8 26 8 C26 6.35 26 4.7 26 3 C20.71566323 1.96912119 15.48895352 1.68388642 10.125 1.4375 C9.24585937 1.39431641 8.36671875 1.35113281 7.4609375 1.30664062 C5.30744203 1.20130661 3.15373936 1.10022351 1 1 C1 2.32 1 3.64 1 5 C1.66 5.33 2.32 5.66 3 6 C2.01 6 1.02 6 0 6 C0 4.02 0 2.04 0 0 Z " fill="#3279A4" transform="translate(63,36)"/>
<path d="M0 0 C3.24788441 1.29915377 3.99860774 2.91819483 5.5 6 C4.84 6.66 4.18 7.32 3.5 8 C2.84 6.35 2.18 4.7 1.5 3 C0.18 3 -1.14 3 -2.5 3 C-2.47679687 3.66386719 -2.45359375 4.32773437 -2.4296875 5.01171875 C-2.25043937 13.78207381 -2.25043937 13.78207381 -4.5 18 C-5.16 17.67 -5.82 17.34 -6.5 17 C-6.41297874 14.72844502 -6.30480478 12.45769257 -6.1875 10.1875 C-6.12949219 8.92292969 -6.07148438 7.65835938 -6.01171875 6.35546875 C-5.5 3 -5.5 3 -4.11328125 1.05078125 C-2.5 0 -2.5 0 0 0 Z " fill="#66ABCB" transform="translate(152.5,43)"/>
<path d="M0 0 C0 0.66 0 1.32 0 2 C-1.64453125 3.1484375 -1.64453125 3.1484375 -3.8125 4.375 C-9.27850629 7.67577492 -11.2612075 11.26157763 -14 17 C-14.66 16.67 -15.32 16.34 -16 16 C-15.52126863 10.97332059 -14.27675909 7.86489534 -11 4 C-7.41163763 1.6559891 -4.32514242 0 0 0 Z " fill="#5CA7C9" transform="translate(150,31)"/>
<path d="M0 0 C0.33 2.97 0.66 5.94 1 9 C2.32 9.33 3.64 9.66 5 10 C5 10.66 5 11.32 5 12 C0.71 12 -3.58 12 -8 12 C-8 11.34 -8 10.68 -8 10 C-7.34 10 -6.68 10 -6 10 C-5.731875 8.906875 -5.46375 7.81375 -5.1875 6.6875 C-3.03389831 0 -3.03389831 0 0 0 Z " fill="#0475B4" transform="translate(237,55)"/>
<path d="M0 0 C0.33 0 0.66 0 1 0 C0.9396826 2.87714013 0.85254404 5.74930854 0.75 8.625 C0.73582031 9.43324219 0.72164062 10.24148437 0.70703125 11.07421875 C0.48199601 16.61008568 -0.41490427 19.72753629 -4 24 C-4.66 24.33 -5.32 24.66 -6 25 C-5.53162559 22.34587835 -4.98210057 19.95413272 -4 17.4375 C-2.75485067 13.15729917 -2.56460763 9.04861331 -2.34375 4.609375 C-2 2 -2 2 0 0 Z " fill="#6EACC9" transform="translate(145,42)"/>
<path d="M0 0 C2.97 0 5.94 0 9 0 C9 5.61 9 11.22 9 17 C8.67 17 8.34 17 8 17 C7.67 13.04 7.34 9.08 7 5 C5.02 5 3.04 5 1 5 C1 5.99 1 6.98 1 8 C0.34 7.67 -0.32 7.34 -1 7 C-0.67 4.69 -0.34 2.38 0 0 Z " fill="#50BFF5" transform="translate(100,41)"/>
<path d="M0 0 C1.32 0.33 2.64 0.66 4 1 C3.01 1 2.02 1 1 1 C1 1.99 1 2.98 1 4 C6.28 4 11.56 4 17 4 C17.33 6.31 17.66 8.62 18 11 C18.66 11 19.32 11 20 11 C20 9.02 20 7.04 20 5 C20.66 5.33 21.32 5.66 22 6 C22 7.98 22 9.96 22 12 C20.34385343 12.38218767 18.67542976 12.71395102 17 13 C16.67 12.67 16.34 12.34 16 12 C16 9.69 16 7.38 16 5 C10.72 5 5.44 5 0 5 C0 3.35 0 1.7 0 0 Z " fill="#3279A2" transform="translate(227,64)"/>
<path d="M0 0 C1.67542976 0.28604898 3.34385343 0.61781233 5 1 C5 1.66 5 2.32 5 3 C11.27 2.67 17.54 2.34 24 2 C24 2.66 24 3.32 24 4 C17.4 4 10.8 4 4 4 C4 3.34 4 2.68 4 2 C3.01 2 2.02 2 1 2 C0.67 6.29 0.34 10.58 0 15 C-0.33 15 -0.66 15 -1 15 C-1.02685412 12.68756208 -1.04632841 10.3750373 -1.0625 8.0625 C-1.07410156 6.77472656 -1.08570312 5.48695312 -1.09765625 4.16015625 C-1 1 -1 1 0 0 Z " fill="#2C779E" transform="translate(96,33)"/>
<path d="M0 0 C0.33 0 0.66 0 1 0 C1.738041 15.92938497 1.738041 15.92938497 -3 22 C-3.99 21.67 -4.98 21.34 -6 21 C-5.360625 19.9275 -4.72125 18.855 -4.0625 17.75 C-1.6732874 13.06411472 -1.40339732 8.6375559 -1.17578125 3.44140625 C-1 1 -1 1 0 0 Z " fill="#71AECA" transform="translate(152,47)"/>
<path d="M0 0 C2.73036484 2.35449409 2.97742644 2.77523529 3.36328125 6.6171875 C3.36195473 8.03655865 3.34445973 9.45598809 3.3125 10.875 C3.31572266 11.58269531 3.31894531 12.29039063 3.32226562 13.01953125 C3.28038138 17.10895622 2.8098322 20.32265171 1 24 C0.34 24 -0.32 24 -1 24 C-0.75443359 22.80503906 -0.75443359 22.80503906 -0.50390625 21.5859375 C0.10791538 17.23204401 0.10799591 13.0136058 0.0625 8.625 C0.05798828 7.79355469 0.05347656 6.96210937 0.04882812 6.10546875 C0.03713164 4.07028103 0.01919935 2.03513077 0 0 Z " fill="#63A7C4" transform="translate(163,43)"/>
<path d="M0 0 C2.74654811 5.1268898 3.12482001 8.85874225 2.6875 14.6875 C2.60886719 15.84636719 2.53023437 17.00523438 2.44921875 18.19921875 C2.30097656 19.12347656 2.15273437 20.04773438 2 21 C1.34 21.33 0.68 21.66 0 22 C-0.06058594 20.89140625 -0.12117187 19.7828125 -0.18359375 18.640625 C-0.26802951 17.1770718 -0.35267599 15.71353075 -0.4375 14.25 C-0.47681641 13.52039062 -0.51613281 12.79078125 -0.55664062 12.0390625 C-0.76147098 8.5727027 -1.0852002 5.34666974 -2 2 C-1.34 2 -0.68 2 0 2 C0 1.34 0 0.68 0 0 Z " fill="#62A5C8" transform="translate(168,41)"/>
<path d="M0 0 C1.98 0.495 1.98 0.495 4 1 C4 4.63 4 8.26 4 12 C2.35 12 0.7 12 -1 12 C-1.25 5.375 -1.25 5.375 1 2 C0.67 1.34 0.34 0.68 0 0 Z " fill="#0978B4" transform="translate(199,36)"/>
<path d="M0 0 C0.33 2.64 0.66 5.28 1 8 C-1.97 8 -4.94 8 -8 8 C-8 7.34 -8 6.68 -8 6 C-6.68 5.67 -5.36 5.34 -4 5 C-4.66 3.35 -5.32 1.7 -6 0 C-3.50907189 -1.24546405 -2.58919267 -0.7767578 0 0 Z " fill="#0875B5" transform="translate(58,59)"/>
<path d="M0 0 C0 0.99 0 1.98 0 3 C-0.65484375 2.76023437 -1.3096875 2.52046875 -1.984375 2.2734375 C-9.57438841 -0.19224482 -15.29223809 0.13022879 -23 2 C-23 1.34 -23 0.68 -23 0 C-15.72018504 -3.14802809 -7.27981496 -3.14802809 0 0 Z " fill="#59AFD7" transform="translate(164,29)"/>
<path d="M0 0 C4.55384615 -0.36923077 4.55384615 -0.36923077 6.8125 1.5 C7.204375 1.995 7.59625 2.49 8 3 C8 2.01 8 1.02 8 0 C9.65 0 11.3 0 13 0 C13 1.32 13 2.64 13 4 C9.04 4 5.08 4 1 4 C0.67 2.68 0.34 1.36 0 0 Z " fill="#0676B4" transform="translate(28,65)"/>
<path d="M0 0 C0.66 0 1.32 0 2 0 C4.12508244 3.18762365 4.5020163 5.26512223 5 9 C5.99 9 6.98 9 8 9 C7.40049704 12.68266103 6.75241109 16.34543185 6 20 C3.72517127 16.5877569 3.23462392 14.00648672 2.4375 10 C1.42646863 4.94467958 1.42646863 4.94467958 0 0 Z " fill="#59B5DF" transform="translate(169,37)"/>
<path d="M0 0 C0.66 0 1.32 0 2 0 C1.66288364 5.88209918 1.36101136 10.95848296 -2 16 C-2.99 16.33 -3.98 16.66 -5 17 C-4.14496558 13.36385363 -3.04324451 9.81691778 -1.9375 6.25 C-1.39416016 4.49429688 -1.39416016 4.49429688 -0.83984375 2.703125 C-0.56269531 1.81109375 -0.28554687 0.9190625 0 0 Z " fill="#68ACC9" transform="translate(156,53)"/>
<path d="M0 0 C2.31 0.33 4.62 0.66 7 1 C7 1.66 7 2.32 7 3 C3.69005287 4.65497356 0.00877 4.10084335 -3.625 4.0625 C-4.42679687 4.05798828 -5.22859375 4.05347656 -6.0546875 4.04882812 C-8.03649006 4.03703168 -10.01825433 4.01909605 -12 4 C-10 2 -10 2 -7.6171875 1.8046875 C-6.71226563 1.82789062 -5.80734375 1.85109375 -4.875 1.875 C-3.50988281 1.90207031 -3.50988281 1.90207031 -2.1171875 1.9296875 C-1.41851562 1.95289062 -0.71984375 1.97609375 0 2 C0 1.34 0 0.68 0 0 Z " fill="#0374B7" transform="translate(83,63)"/>
<path d="M0 0 C0.33 0 0.66 0 1 0 C1 3.63 1 7.26 1 11 C-2.96 11 -6.92 11 -11 11 C-11 10.34 -11 9.68 -11 9 C-8.03 9 -5.06 9 -2 9 C-2 8.01 -2 7.02 -2 6 C-1.34 6 -0.68 6 0 6 C0 4.02 0 2.04 0 0 Z " fill="#51B5E5" transform="translate(209,48)"/>
<path d="M0 0 C0.66 0 1.32 0 2 0 C2 3.96 2 7.92 2 12 C0.35 12.33 -1.3 12.66 -3 13 C-3.33 11.35 -3.66 9.7 -4 8 C-3.34 8 -2.68 8 -2 8 C-2 8.99 -2 9.98 -2 11 C-1.34 11 -0.68 11 0 11 C0 7.37 0 3.74 0 0 Z " fill="#4386A9" transform="translate(277,64)"/>
<path d="M0 0 C3.36696012 1.05776181 4.08522227 2.14446213 5.921875 5.2578125 C6.54360668 6.54096087 7.15265262 7.83032007 7.75 9.125 C8.22373047 10.11306641 8.22373047 10.11306641 8.70703125 11.12109375 C9.48233745 12.74218853 10.24265686 14.37043584 11 16 C10.01 16 9.02 16 8 16 C6.85121668 13.89739659 5.70588808 11.79303461 4.5625 9.6875 C4.23701172 9.09259766 3.91152344 8.49769531 3.57617188 7.88476562 C2.16262616 5.27626374 0.94051367 2.82154101 0 0 Z " fill="#71BCDD" transform="translate(175,19)"/>
<path d="M0 0 C0.33 1.32 0.66 2.64 1 4 C-0.32 4 -1.64 4 -3 4 C-2.67 4.99 -2.34 5.98 -2 7 C1.96 7.33 5.92 7.66 10 8 C10 8.33 10 8.66 10 9 C7.68756208 9.02685412 5.3750373 9.04632841 3.0625 9.0625 C1.77472656 9.07410156 0.48695312 9.08570312 -0.83984375 9.09765625 C-4 9 -4 9 -5 8 C-5.04063832 6.33382885 -5.042721 4.66611905 -5 3 C-3.35 2.67 -1.7 2.34 0 2 C0 1.34 0 0.68 0 0 Z " fill="#1E6D96" transform="translate(31,61)"/>
<path d="M0 0 C4.76644369 -0.19065775 8.66586616 -0.11667001 13 2 C14.375 4.625 14.375 4.625 15 7 C14.45859375 6.71382812 13.9171875 6.42765625 13.359375 6.1328125 C10.70680653 4.8592283 8.02068518 3.86453042 5.25 2.875 C4.26515625 2.52179687 3.2803125 2.16859375 2.265625 1.8046875 C1.51796875 1.53914063 0.7703125 1.27359375 0 1 C0 0.67 0 0.34 0 0 Z " fill="#5BA0C2" transform="translate(148,35)"/>
<path d="M0 0 C0.33 0.66 0.66 1.32 1 2 C1.99 2 2.98 2 4 2 C4.125 7.75 4.125 7.75 3 10 C1.68 9.34 0.36 8.68 -1 8 C-0.34 7.34 0.32 6.68 1 6 C-0.32 4.68 -1.64 3.36 -3 2 C-2.01 1.34 -1.02 0.68 0 0 Z " fill="#0F77AD" transform="translate(123,32)"/>
<path d="M0 0 C1.98 0 3.96 0 6 0 C6 1.32 6 2.64 6 4 C6.66 4 7.32 4 8 4 C7.67 4.66 7.34 5.32 7 6 C4.525 5.01 4.525 5.01 2 4 C2 4.99 2 5.98 2 7 C1.34 7 0.68 7 0 7 C-1.04449911 3.86650268 -0.93423645 3.01031744 0 0 Z " fill="#217EB0" transform="translate(198,33)"/>
<path d="M0 0 C0.33 0.66 0.66 1.32 1 2 C1.66 2.33 2.32 2.66 3 3 C2.67 5.97 2.34 8.94 2 12 C1.67 12 1.34 12 1 12 C0.67 9.69 0.34 7.38 0 5 C-1.52100023 6.52100023 -2.72023232 8.27509574 -4 10 C-3.67 7.36 -3.34 4.72 -3 2 C-2.01 2 -1.02 2 0 2 C0 1.34 0 0.68 0 0 Z " fill="#1974A8" transform="translate(185,51)"/>
<path d="M0 0 C1.19689529 3.59068588 0.98581029 6.22703538 0.75 10 C0.68296875 11.2375 0.6159375 12.475 0.546875 13.75 C-0.0358348 17.21296109 -0.50274704 17.79057167 -3 20 C-2.69215623 17.04111327 -2.37894426 14.08296833 -2.0625 11.125 C-1.97548828 10.28324219 -1.88847656 9.44148438 -1.79882812 8.57421875 C-1.71181641 7.76855469 -1.62480469 6.96289062 -1.53515625 6.1328125 C-1.456604 5.38918457 -1.37805176 4.64555664 -1.29711914 3.87939453 C-1 2 -1 2 0 0 Z " fill="#1C719F" transform="translate(251,42)"/>
<path d="M0 0 C1.74627478 2.61941217 2.38722388 4.03824877 3 7 C-3.4489191 8.31909709 -9.48755792 7.69508823 -16 7 C-16 6.67 -16 6.34 -16 6 C-11.38 5.67 -6.76 5.34 -2 5 C-1.34 3.35 -0.68 1.7 0 0 Z " fill="#1D6E9B" transform="translate(55,52)"/>
<path d="M0 0 C0.99 0.33 1.98 0.66 3 1 C3.36923077 7.52307692 3.36923077 7.52307692 1.5 9.9375 C1.005 10.288125 0.51 10.63875 0 11 C0 9.68 0 8.36 0 7 C-0.66 7 -1.32 7 -2 7 C-2 6.01 -2 5.02 -2 4 C-1.34 4 -0.68 4 0 4 C0 2.68 0 1.36 0 0 Z " fill="#207DAC" transform="translate(89,40)"/>
<path d="M0 0 C0.66 0 1.32 0 2 0 C2.33 2.97 2.66 5.94 3 9 C4.32 9.33 5.64 9.66 7 10 C6 11 6 11 3.5 11.125 C1 11 1 11 0 10 C-0.07205511 8.31391034 -0.08386068 6.62499341 -0.0625 4.9375 C-0.05347656 4.01839844 -0.04445312 3.09929688 -0.03515625 2.15234375 C-0.02355469 1.44207031 -0.01195312 0.73179688 0 0 Z " fill="#1C709B" transform="translate(209,59)"/>
<path d="M0 0 C0.66 0 1.32 0 2 0 C2.25 3.3125 2.25 3.3125 2 7 C0 8.9375 0 8.9375 -2 10 C-1.85950482 8.52031676 -1.71245174 7.04125484 -1.5625 5.5625 C-1.48128906 4.73878906 -1.40007812 3.91507813 -1.31640625 3.06640625 C-1 1 -1 1 0 0 Z " fill="#67ACC9" transform="translate(135,51)"/>
<path d="M0 0 C0.33 1.32 0.66 2.64 1 4 C-3.1196377 5.29243536 -6.66831683 6.26252625 -11 6 C-10 4.5 -10 4.5 -8 3 C-5.28153765 2.72654521 -2.74322801 2.86508715 0 3 C0 2.01 0 1.02 0 0 Z " fill="#2C7BA6" transform="translate(194,65)"/>
<path d="M0 0 C0.66 0 1.32 0 2 0 C2.3125 2.6875 2.3125 2.6875 2 6 C-0.5 8.875 -0.5 8.875 -3 11 C-2.32829194 7.1936543 -1.27253436 3.64793184 0 0 Z " fill="#60ABCD" transform="translate(142,56)"/>
<path d="M0 0 C0 0.66 0 1.32 0 2 C-3.96 3.98 -3.96 3.98 -8 6 C-8.99 5.34 -9.98 4.68 -11 4 C-9.73308493 3.32591692 -8.46129251 2.66099503 -7.1875 2 C-6.47980469 1.62875 -5.77210938 1.2575 -5.04296875 0.875 C-3 0 -3 0 0 0 Z " fill="#63A3C1" transform="translate(150,31)"/>
<path d="M0 0 C0.66 0.33 1.32 0.66 2 1 C1.67 3.31 1.34 5.62 1 8 C1.66 8.33 2.32 8.66 3 9 C1.35 8.67 -0.3 8.34 -2 8 C-2 4.23312136 -1.76462683 3.08809695 0 0 Z " fill="#1C7DAF" transform="translate(179,61)"/>
<path d="M0 0 C2.125 0.9375 2.125 0.9375 4 2 C4 2.99 4 3.98 4 5 C2.02 5.33 0.04 5.66 -2 6 C-2 4.35 -2 2.7 -2 1 C-1.34 0.67 -0.68 0.34 0 0 Z " fill="#46BEED" transform="translate(123,62)"/>
<path d="M0 0 C0.66 0.33 1.32 0.66 2 1 C0.02 5.455 0.02 5.455 -2 10 C-2.66 10 -3.32 10 -4 10 C-3.43454163 6.04179141 -2.19097652 3.3340947 0 0 Z " fill="#5AB1CE" transform="translate(140,53)"/>
<path d="M0 0 C1.29227198 4.19988393 0.50255809 6.86796526 -1 11 C-2.625 12.9375 -2.625 12.9375 -4 14 C-3.36843005 8.94744036 -1.86540627 4.70406799 0 0 Z " fill="#2E7EA9" transform="translate(36,49)"/>
<path d="M0 0 C0.66 0.99 1.32 1.98 2 3 C1.1875 4.9375 1.1875 4.9375 0 7 C-0.99 7.33 -1.98 7.66 -3 8 C-2.25 2.25 -2.25 2.25 0 0 Z " fill="#65AACC" transform="translate(159,62)"/>
<path d="M0 0 C2.475 0.495 2.475 0.495 5 1 C4.01 1.495 4.01 1.495 3 2 C2.34444881 4.52733235 2.34444881 4.52733235 2 7 C0 5 0 5 -0.125 2.375 C-0.08375 1.59125 -0.0425 0.8075 0 0 Z " fill="#4FB1E3" transform="translate(95,48)"/>
<path d="M0 0 C2.29013653 3.4352048 2.17842973 4.985331 2 9 C0.68 9 -0.64 9 -2 9 C-1.34 6.03 -0.68 3.06 0 0 Z " fill="#0476B2" transform="translate(98,39)"/>
<path d="M0 0 C2.375 -0.1875 2.375 -0.1875 5 0 C5.66 0.99 6.32 1.98 7 3 C4.36 3 1.72 3 -1 3 C-0.67 2.01 -0.34 1.02 0 0 Z " fill="#0577AF" transform="translate(75,37)"/>
<path d="M0 0 C3.25 -0.375 3.25 -0.375 6 0 C5.34 0.66 4.68 1.32 4 2 C3.01 2 2.02 2 1 2 C0.67 2.99 0.34 3.98 0 5 C-2.0625 5.6875 -2.0625 5.6875 -4 6 C-2.375 3 -2.375 3 0 0 Z " fill="#55B7E3" transform="translate(137,19)"/>
<path d="M0 0 C2.475 0.99 2.475 0.99 5 2 C5 3.32 5 4.64 5 6 C3.125 5.75 3.125 5.75 1 5 C-0.25 2.9375 -0.25 2.9375 -1 1 C-0.67 0.67 -0.34 0.34 0 0 Z " fill="#0679B0" transform="translate(86,53)"/>
<path d="M0 0 C1.65 0.33 3.3 0.66 5 1 C5 1.99 5 2.98 5 4 C2.69 3.67 0.38 3.34 -2 3 C-1.34 2.67 -0.68 2.34 0 2 C0 1.34 0 0.68 0 0 Z " fill="#0576B1" transform="translate(78,51)"/>
<path d="M0 0 C0.625 1.8125 0.625 1.8125 1 4 C0.01 5.485 0.01 5.485 -1 7 C-1.99 7 -2.98 7 -4 7 C-2.92598892 4.08482708 -2.22189824 2.22189824 0 0 Z " fill="#67A8C4" transform="translate(146,61)"/>
<path d="M0 0 C0.33 0.99 0.66 1.98 1 3 C1.66 3 2.32 3 3 3 C3 4.32 3 5.64 3 7 C1.0625 6.625 1.0625 6.625 -1 6 C-1.33 5.34 -1.66 4.68 -2 4 C-1.34 4 -0.68 4 0 4 C0 2.68 0 1.36 0 0 Z " fill="#1270B7" transform="translate(86,44)"/>
<path d="M0 0 C0.99 0.33 1.98 0.66 3 1 C2.74438677 3.3431213 2.40729228 5.67843403 2 8 C1.01 8.495 1.01 8.495 0 9 C0 6.03 0 3.06 0 0 Z " fill="#1A80B5" transform="translate(96,37)"/>
<path d="M0 0 C6.625 0.75 6.625 0.75 10 3 C9.67 3.66 9.34 4.32 9 5 C4.545 3.02 4.545 3.02 0 1 C0 0.67 0 0.34 0 0 Z " fill="#25749E" transform="translate(81,36)"/>
<path d="M0 0 C1.65 0 3.3 0 5 0 C4.6875 1.9375 4.6875 1.9375 4 4 C3.01 4.33 2.02 4.66 1 5 C0.67 3.35 0.34 1.7 0 0 Z " fill="#0275B9" transform="translate(268,38)"/>
<path d="" fill="#55AAAA" transform="translate(0,0)"/>
</svg>
