<?xml version="1.0" standalone="no"?>
<!DOCTYPE svg PUBLIC "-//W3C//DTD SVG 20010904//EN"
 "http://www.w3.org/TR/2001/REC-SVG-20010904/DTD/svg10.dtd">
<svg version="1.0" xmlns="http://www.w3.org/2000/svg"
 width="300.000000pt" height="83.000000pt" viewBox="0 0 300.000000 83.000000"
 preserveAspectRatio="xMidYMid meet">

<g transform="translate(0.000000,83.000000) scale(0.100000,-0.100000)"
fill="#000000" stroke="none">
<path d="M1214 479 c-4 -7 -48 -10 -128 -8 l-121 4 -3 -63 c-3 -57 -1 -62 18
-62 16 0 20 6 20 35 0 35 0 35 45 35 l45 0 0 -115 c0 -107 -1 -115 -19 -115
-33 0 -51 -11 -51 -31 0 -17 8 -19 90 -19 81 0 90 2 90 19 0 13 -9 20 -30 25
l-30 6 0 115 0 115 40 0 c39 0 40 -1 40 -35 0 -31 3 -35 25 -35 24 0 25 2 25
70 0 68 -1 70 -24 70 -14 0 -28 -5 -32 -11z"/>
<path d="M1990 480 c0 -6 -31 -10 -72 -10 -108 0 -148 -9 -148 -31 0 -14 7
-19 25 -19 29 0 29 -7 19 -147 -6 -69 -10 -82 -26 -86 -13 -4 -18 -12 -16 -24
3 -15 15 -18 86 -21 77 -3 82 -2 82 18 0 14 -7 20 -22 22 -13 0 -30 1 -38 2
-12 1 -15 21 -15 116 l0 115 58 3 57 3 0 -36 c0 -31 3 -35 25 -35 24 0 25 3
25 54 0 30 -3 61 -6 70 -7 17 -34 22 -34 6z"/>
<path d="M663 463 c-30 -6 -32 -43 -3 -43 20 0 21 -5 18 -117 l-3 -118 -26 -3
c-41 -5 -64 26 -115 156 l-48 122 -63 0 c-56 0 -64 -2 -61 -17 2 -10 13 -19
26 -21 26 -4 26 -3 8 -44 -23 -54 -43 -101 -60 -140 -8 -22 -26 -43 -41 -50
-15 -7 -25 -18 -23 -27 3 -12 19 -17 71 -19 62 -3 67 -1 67 18 0 15 -6 20 -25
20 -18 0 -25 5 -25 19 0 35 27 51 88 51 67 0 78 -6 87 -43 6 -24 5 -27 -19
-27 -20 0 -26 -5 -26 -21 0 -20 3 -20 196 -17 l196 3 24 28 c32 38 31 73 -5
106 l-30 28 20 20 c17 16 19 27 13 58 -10 54 -35 75 -88 75 -24 0 -63 2 -87 4
-24 2 -54 2 -66 -1z m-163 -165 c0 -4 -23 -8 -51 -8 -57 0 -56 -2 -17 90 l20
45 24 -59 c13 -33 24 -63 24 -68z m353 101 c32 -44 -5 -79 -84 -79 l-39 0 0
50 0 50 54 0 c44 0 58 -4 69 -21z m11 -135 c41 -41 -7 -84 -95 -84 l-39 0 0
50 0 50 59 0 c41 0 65 -5 75 -16z"/>
<path d="M2343 461 c-26 -5 -42 -22 -103 -116 -40 -60 -76 -114 -81 -119 -5
-6 -9 32 -9 92 l0 102 25 0 c18 0 25 5 25 20 0 18 -7 20 -70 20 -62 0 -70 -2
-70 -19 0 -10 9 -21 20 -24 19 -5 20 -14 20 -141 0 -136 0 -136 23 -136 30 0
38 10 129 145 l73 110 3 -94 c3 -109 0 -121 -28 -121 -15 0 -20 -5 -18 -17 3
-15 16 -19 71 -21 66 -3 67 -3 67 23 0 20 -5 25 -25 25 l-25 0 0 115 0 115 25
0 c18 0 25 5 25 20 0 11 -4 20 -9 20 -5 0 -15 2 -23 4 -7 2 -27 1 -45 -3z"/>
<path d="M2470 446 c0 -8 9 -18 20 -21 23 -7 24 -22 10 -115 -17 -108 -20
-118 -41 -123 -20 -5 -25 -47 -9 -97 8 -26 15 -18 22 25 3 19 11 20 138 20
l135 0 3 -32 c5 -55 22 -37 22 23 0 47 -3 57 -20 61 -19 5 -20 14 -20 118 0
104 1 113 20 118 11 3 20 12 20 21 0 14 -19 16 -150 16 -124 0 -150 -3 -150
-14z m218 -143 l-3 -118 -77 -3 c-59 -2 -78 0 -78 10 0 7 7 61 16 121 l17 107
64 0 64 0 -3 -117z"/>
</g>
</svg>
